<?xml version="1.0" encoding="UTF-8" standalone="no"?><svg xmlns="http://www.w3.org/2000/svg" xmlns:xlink="http://www.w3.org/1999/xlink" contentStyleType="text/css" height="479px" preserveAspectRatio="none" style="width:1044px;height:479px;background:#FFFFFF;" version="1.1" viewBox="0 0 1044 479" width="1044px" zoomAndPan="magnify"><defs/><g><!--MD5=[2b721f433180eef93c3f34c3fd72b39d]
cluster My Restaurant--><g id="cluster_My Restaurant"><path d="M8.5,6 L110.5,6 A3.75,3.75 0 0 1 113,8.5 L120,29.6094 L1034.5,29.6094 A2.5,2.5 0 0 1 1037,32.1094 L1037,469.5 A2.5,2.5 0 0 1 1034.5,472 L8.5,472 A2.5,2.5 0 0 1 6,469.5 L6,8.5 A2.5,2.5 0 0 1 8.5,6 " fill="none" style="stroke:#000000;stroke-width:1.5;"/><line style="stroke:#000000;stroke-width:1.5;" x1="6" x2="120" y1="29.6094" y2="29.6094"/><text fill="#000000" font-family="sans-serif" font-size="14" font-weight="bold" lengthAdjust="spacing" textLength="101" x="10" y="22.5332">My Restaurant</text></g><!--MD5=[8e8c41c1ce34813b33736b9e139881eb]
cluster professionals--><g id="cluster_professionals"><path d="M680.5,50 L777.5,50 A3.75,3.75 0 0 1 780,52.5 L787,73.6094 L854.5,73.6094 A2.5,2.5 0 0 1 857,76.1094 L857,177.5 A2.5,2.5 0 0 1 854.5,180 L680.5,180 A2.5,2.5 0 0 1 678,177.5 L678,52.5 A2.5,2.5 0 0 1 680.5,50 " fill="none" style="stroke:#000000;stroke-width:1.5;"/><line style="stroke:#000000;stroke-width:1.5;" x1="678" x2="787" y1="73.6094" y2="73.6094"/><text fill="#000000" font-family="sans-serif" font-size="14" font-weight="bold" lengthAdjust="spacing" textLength="96" x="682" y="66.5332">professionals</text></g><!--MD5=[27fbeb839ece46b3aa7371a781596bb6]
cluster employees--><g id="cluster_employees"><path d="M223.5,204 L300.5,204 A3.75,3.75 0 0 1 303,206.5 L310,227.6094 L366.5,227.6094 A2.5,2.5 0 0 1 369,230.1094 L369,331.5 A2.5,2.5 0 0 1 366.5,334 L223.5,334 A2.5,2.5 0 0 1 221,331.5 L221,206.5 A2.5,2.5 0 0 1 223.5,204 " fill="none" style="stroke:#000000;stroke-width:1.5;"/><line style="stroke:#000000;stroke-width:1.5;" x1="221" x2="310" y1="227.6094" y2="227.6094"/><text fill="#000000" font-family="sans-serif" font-size="14" font-weight="bold" lengthAdjust="spacing" textLength="76" x="225" y="220.5332">employees</text></g><!--MD5=[b5e3361e2a5f8dd2cdf2e5f0d87d6906]
cluster customer--><g id="cluster_customer"><path d="M395.5,204 L462.5,204 A3.75,3.75 0 0 1 465,206.5 L472,227.6094 L484.5,227.6094 A2.5,2.5 0 0 1 487,230.1094 L487,331.5 A2.5,2.5 0 0 1 484.5,334 L395.5,334 A2.5,2.5 0 0 1 393,331.5 L393,206.5 A2.5,2.5 0 0 1 395.5,204 " fill="none" style="stroke:#000000;stroke-width:1.5;"/><line style="stroke:#000000;stroke-width:1.5;" x1="393" x2="472" y1="227.6094" y2="227.6094"/><text fill="#000000" font-family="sans-serif" font-size="14" font-weight="bold" lengthAdjust="spacing" textLength="66" x="397" y="220.5332">customer</text></g><!--MD5=[7d46d6cd919e02e6168a09ad91eae8b4]
entity u--><g id="elem_u"><ellipse cx="333" cy="94.5" fill="#008000" rx="8" ry="8" style="stroke:#008000;stroke-width:0.5;"/><path d="M333,102.5 L333,129.5 M320,110.5 L346,110.5 M333,129.5 L320,144.5 M333,129.5 L346,144.5 " fill="none" style="stroke:#008000;stroke-width:0.5;"/><text fill="#008000" font-family="sans-serif" font-size="14" lengthAdjust="spacing" textLength="29" x="318.5" y="160.5332">User</text></g><g id="elem_UC0"><ellipse cx="79.2132" cy="417.0613" fill="#F1F1F1" rx="57.2132" ry="15.5613" style="stroke:#181818;stroke-width:0.5;"/><text fill="#000000" font-family="sans-serif" font-size="14" lengthAdjust="spacing" textLength="64" x="44.2132" y="421.5779">order dish</text></g><g id="elem_UC1"><ellipse cx="283.7614" cy="416.8523" fill="#F1F1F1" rx="112.2614" ry="24.8523" style="stroke:#181818;stroke-width:0.5;"/><text fill="#000000" font-family="sans-serif" font-size="14" lengthAdjust="spacing" textLength="188" x="189.7614" y="420.5808">cancel order if status == open</text></g><g id="elem_UC2"><ellipse cx="613.9981" cy="416.7996" fill="#F1F1F1" rx="181.9981" ry="38.7996" style="stroke:#181818;stroke-width:0.5;"/><text fill="#000000" font-family="sans-serif" font-size="14" lengthAdjust="spacing" textLength="335" x="446.4981" y="420.5281">complete the order by sending an e-mail to the waiter</text></g><g id="elem_UC3"><ellipse cx="926.1904" cy="416.9381" fill="#F1F1F1" rx="95.1904" ry="21.4381" style="stroke:#181818;stroke-width:0.5;"/><text fill="#000000" font-family="sans-serif" font-size="14" lengthAdjust="spacing" textLength="150" x="851.1904" y="420.6666">Write guestbook entries</text></g><!--MD5=[6377be883f12643b62e189b60fe92e84]
entity ch--><g id="elem_ch"><ellipse cx="826" cy="94.5" fill="#F1F1F1" rx="8" ry="8" style="stroke:#181818;stroke-width:0.5;"/><path d="M826,102.5 L826,129.5 M813,110.5 L839,110.5 M826,129.5 L813,144.5 M826,129.5 L839,144.5 " fill="none" style="stroke:#181818;stroke-width:0.5;"/><text fill="#000000" font-family="sans-serif" font-size="14" lengthAdjust="spacing" textLength="30" x="811" y="160.5332">Chef</text></g><!--MD5=[db756db308cf6ff8cfeeb51570136b75]
entity fc--><g id="elem_fc"><ellipse cx="735" cy="94.5" fill="#F1F1F1" rx="8" ry="8" style="stroke:#181818;stroke-width:0.5;"/><path d="M735,102.5 L735,129.5 M722,110.5 L748,110.5 M735,129.5 L722,144.5 M735,129.5 L748,144.5 " fill="none" style="stroke:#181818;stroke-width:0.5;"/><text fill="#000000" font-family="sans-serif" font-size="14" lengthAdjust="spacing" textLength="82" x="694" y="160.5332">Food Criticer</text></g><!--MD5=[f83ae91a690dfc657e1c5fbbd818f13d]
entity a--><g id="elem_a"><ellipse cx="333" cy="248.5" fill="#F1F1F1" rx="8" ry="8" style="stroke:#181818;stroke-width:0.5;"/><path d="M333,256.5 L333,283.5 M320,264.5 L346,264.5 M333,283.5 L320,298.5 M333,283.5 L346,298.5 " fill="none" style="stroke:#181818;stroke-width:0.5;"/><text fill="#000000" font-family="sans-serif" font-size="14" lengthAdjust="spacing" textLength="39" x="313.5" y="314.5332">Admin</text></g><!--MD5=[5b15d04c6eb656314d90c943872e8a65]
entity w--><g id="elem_w"><ellipse cx="258" cy="248.5" fill="#F1F1F1" rx="8" ry="8" style="stroke:#181818;stroke-width:0.5;"/><path d="M258,256.5 L258,283.5 M245,264.5 L271,264.5 M258,283.5 L245,298.5 M258,283.5 L271,298.5 " fill="none" style="stroke:#181818;stroke-width:0.5;"/><text fill="#000000" font-family="sans-serif" font-size="14" lengthAdjust="spacing" textLength="41" x="237.5" y="314.5332">Waiter</text></g><!--MD5=[8e9b2d9d80e066cced8e5d90e9bdea61]
entity c--><g id="elem_c"><ellipse cx="440" cy="248.5" fill="#F1F1F1" rx="8" ry="8" style="stroke:#181818;stroke-width:0.5;"/><path d="M440,256.5 L440,283.5 M427,264.5 L453,264.5 M440,283.5 L427,298.5 M440,283.5 L453,298.5 " fill="none" style="stroke:#181818;stroke-width:0.5;"/><text fill="#000000" font-family="sans-serif" font-size="14" lengthAdjust="spacing" textLength="61" x="409.5" y="314.5332">Customer</text></g><!--MD5=[06a832829b5b155175aa1c2269fcd6ac]
reverse link u to c--><g id="link_u_c"><path d="M359.37,163.46 C375.75,186.72 396.73,216.53 413.18,239.91 " fill="none" id="u-backto-c" style="stroke:#181818;stroke-width:1.0;"/><polygon fill="none" points="353.44,167.2,347.65,146.82,364.89,159.14,353.44,167.2" style="stroke:#181818;stroke-width:1.0;"/></g><!--MD5=[e559cd32e29158da16669ed931a236be]
reverse link u to w--><g id="link_u_w"><path d="M308.91,170.73 C304.54,179.09 300.07,187.78 296,196 C288.96,210.2 281.56,225.96 275.18,239.84 " fill="none" id="u-backto-w" style="stroke:#181818;stroke-width:1.0;"/><polygon fill="none" points="302.89,167.15,318.44,152.76,315.26,173.71,302.89,167.15" style="stroke:#181818;stroke-width:1.0;"/></g><!--MD5=[06ed1f97a038065ba63baeec153d63f2]
reverse link u to a--><g id="link_u_a"><path d="M333,184.47 C333,203.07 333,223.15 333,239.92 " fill="none" id="u-backto-a" style="stroke:#181818;stroke-width:1.0;"/><polygon fill="none" points="326,184.36,333,164.36,340,184.36,326,184.36" style="stroke:#181818;stroke-width:1.0;"/></g><!--MD5=[cd5ffc126cc0f32e10a583baf9334a09]
link c to UC0--><g id="link_c_UC0"><path d="M409.17,313.54 C397.58,324.23 383.64,335.07 369,342 C281.42,383.43 246.05,347.76 154,378 C137.18,383.53 119.46,392.35 105.47,400.1 " fill="none" id="c-to-UC0" style="stroke:#181818;stroke-width:1.0;"/><polygon fill="#181818" points="100.88,402.68,110.6855,401.757,105.2386,400.23,106.7656,394.7832,100.88,402.68" style="stroke:#181818;stroke-width:1.0;"/></g><!--MD5=[231f635dede5940d51ca320d2782ce6c]
link c to UC1--><g id="link_c_UC1"><path d="M409.25,306.87 C396.77,317.77 382.2,330.49 369,342 C351.05,357.65 330.96,375.14 314.82,389.19 " fill="none" id="c-to-UC1" style="stroke:#181818;stroke-width:1.0;"/><polygon fill="#181818" points="310.81,392.68,320.2235,389.784,314.58,389.3956,314.9684,383.7521,310.81,392.68" style="stroke:#181818;stroke-width:1.0;"/></g><!--MD5=[2110900e7b9f8bd9c77dd8810158f208]
link c to UC2--><g id="link_c_UC2"><path d="M470.71,304 C496.2,323.92 532.99,352.68 562.9,376.06 " fill="none" id="c-to-UC2" style="stroke:#181818;stroke-width:1.0;"/><polygon fill="#181818" points="566.89,379.18,562.2677,370.4832,562.9525,376.0985,557.3372,376.7832,566.89,379.18" style="stroke:#181818;stroke-width:1.0;"/></g><!--MD5=[d0799cae5d9a295fb7796d4df448133f]
link c to UC3--><g id="link_c_UC3"><path d="M470.75,287.27 C534.93,302.63 687.68,340.07 814,378 C832.96,383.69 853.53,390.49 871.81,396.75 " fill="none" id="c-to-UC3" style="stroke:#181818;stroke-width:1.0;"/><polygon fill="#181818" points="876.9,398.5,869.6931,391.7873,872.1725,396.8718,867.088,399.3512,876.9,398.5" style="stroke:#181818;stroke-width:1.0;"/></g><!--MD5=[b9fcb391a3222eea377448b7a599d0cf]
@startuml
package "My Restaurant" {
    
    actor User as u #green;line:green;text:green;

    package professionals {
        actor Chef as ch
        actor "Food Criticer" as fc
    }
    package employees {
        actor Admin as a
        actor Waiter as w
    }
    package customer {
        actor Customer as c  
    }

    u <|- - c
    u <|- - w
    u <|- - a

    usecase "order dish" as UC0
    usecase "cancel order if status == open" as UC1
    usecase "complete the order by sending an e-mail to the waiter" as UC2
    usecase "Write guestbook entries" as UC3

    c - -> UC0
    c - -> UC1
    c - -> UC2
    c - -> UC3
}


@enduml

PlantUML version 1.2022.7(Mon Aug 22 19:01:30 CEST 2022)
(GPL source distribution)
Java Runtime: Java(TM) SE Runtime Environment
JVM: Java HotSpot(TM) 64-Bit Server VM
Default Encoding: Cp1252
Language: de
Country: DE
--></g></svg>