<?xml version="1.0" encoding="UTF-8" standalone="no"?>
<svg
   width="512"
   height="512"
   viewBox="0 0 512 512"
   version="1.1"
   id="SVGRoot"
   inkscape:version="1.2.1 (9c6d41e410, 2022-07-14)"
   sodipodi:docname="kugel.svg"
   inkscape:export-filename="kugel_0001.png"
   inkscape:export-xdpi="300"
   inkscape:export-ydpi="300"
   xmlns:inkscape="http://www.inkscape.org/namespaces/inkscape"
   xmlns:sodipodi="http://sodipodi.sourceforge.net/DTD/sodipodi-0.dtd"
   xmlns="http://www.w3.org/2000/svg"
   xmlns:svg="http://www.w3.org/2000/svg"
   xmlns:rdf="http://www.w3.org/1999/02/22-rdf-syntax-ns#"
   xmlns:cc="http://creativecommons.org/ns#"
   xmlns:dc="http://purl.org/dc/elements/1.1/">
  <defs
     id="defs2" />
  <sodipodi:namedview
     id="base"
     pagecolor="#ffffff"
     bordercolor="#666666"
     borderopacity="1.0"
     inkscape:pageopacity="0.0"
     inkscape:pageshadow="2"
     inkscape:zoom="1.4142136"
     inkscape:cx="245.71961"
     inkscape:cy="311.83409"
     inkscape:document-units="px"
     inkscape:current-layer="layer1"
     inkscape:document-rotation="0"
     showgrid="false"
     lock-margins="false"
     inkscape:window-width="1267"
     inkscape:window-height="1401"
     inkscape:window-x="13"
     inkscape:window-y="21"
     inkscape:window-maximized="0"
     inkscape:showpageshadow="true"
     inkscape:pagecheckerboard="false"
     inkscape:deskcolor="#d1d1d1"
     borderlayer="false" />
  <metadata
     id="metadata5">
    <rdf:RDF>
      <cc:Work
         rdf:about="">
        <dc:format>image/svg+xml</dc:format>
        <dc:type
           rdf:resource="http://purl.org/dc/dcmitype/StillImage" />
      </cc:Work>
    </rdf:RDF>
  </metadata>
  <g
     inkscape:groupmode="layer"
     id="layer1"
     inkscape:label="Layer 1">
    <g
       id="g7065"
       style="stroke:#000000;stroke-opacity:1;stroke-width:0.9;stroke-dasharray:none">
      <path
         id="path232"
         style="fill:none;fill-opacity:0.298039;stroke:#000000;stroke-width:0.9;stroke-linejoin:round;paint-order:stroke fill markers;stroke-opacity:1;stroke-dasharray:none"
         d="m 35.15184,256.5 c 0,-121.69493 98.65323,-220.34816 220.34816,-220.34816 121.69493,0 220.34816,98.65323 220.34816,220.34816"
         sodipodi:nodetypes="csc" />
      <path
         id="path6853"
         style="fill:none;fill-opacity:0.298039;stroke:#000000;stroke-width:0.9;stroke-linejoin:round;paint-order:stroke fill markers;stroke-opacity:1;stroke-dasharray:none"
         d="m 35.15184,256.5 c 0,121.69493 98.65323,220.34816 220.34816,220.34816 121.69493,0 220.34816,-98.65323 220.34816,-220.34816"
         sodipodi:nodetypes="csc" />
      <g
         id="g6901"
         style="stroke:#000000;stroke-opacity:1;stroke-width:0.9;stroke-dasharray:none">
        <path
           d="M 35.1518 256.5 C 35.1518 134.805 133.805 36.1518 255.5 36.1518 L 255.501 36.1518 C 377.195 36.1522 475.848 134.805 475.848 256.5"
           style="fill:none;fill-opacity:0.298039;stroke:#000000;stroke-width:0.9;stroke-linejoin:round;paint-order:stroke fill markers;stroke-opacity:1;stroke-dasharray:none"
           id="path6867" />
        <path
           d="M 35.1518 256.5 C 35.1518 378.195 133.805 476.848 255.5 476.848 L 255.501 476.848 C 377.195 476.848 475.848 378.195 475.848 256.5"
           style="fill:none;fill-opacity:0.298039;stroke:#000000;stroke-width:0.9;stroke-linejoin:round;paint-order:stroke fill markers;stroke-opacity:1;stroke-dasharray:none"
           id="path6869" />
        <path
           d="M 35.1518 256.5 C 35.1518 378.195 133.805 476.848 255.5 476.848 L 255.501 476.848 C 377.195 476.848 475.848 378.195 475.848 256.5"
           style="fill:none;fill-opacity:0.298039;stroke:#000000;stroke-width:0.9;stroke-linejoin:round;paint-order:stroke fill markers;stroke-opacity:1;stroke-dasharray:none"
           id="path6871" />
        <path
           d="M 35.1518 256.5 C 35.1518 378.195 133.805 476.848 255.5 476.848 L 255.501 476.848 C 377.195 476.848 475.848 378.195 475.848 256.5"
           style="fill:none;fill-opacity:0.298039;stroke:#000000;stroke-width:0.9;stroke-linejoin:round;paint-order:stroke fill markers;stroke-opacity:1;stroke-dasharray:none"
           id="path6873" />
        <path
           d="M 35.1518 256.5 C 35.1518 378.195 133.805 476.848 255.5 476.848 L 255.501 476.848 C 377.195 476.848 475.848 378.195 475.848 256.5"
           style="fill:none;fill-opacity:0.298039;stroke:#000000;stroke-width:0.9;stroke-linejoin:round;paint-order:stroke fill markers;stroke-opacity:1;stroke-dasharray:none"
           id="path6875" />
        <path
           d="M 35.1518 256.5 C 35.1518 378.195 133.805 476.848 255.5 476.848 L 255.501 476.848 C 377.195 476.848 475.848 378.195 475.848 256.5"
           style="fill:none;fill-opacity:0.298039;stroke:#000000;stroke-width:0.9;stroke-linejoin:round;paint-order:stroke fill markers;stroke-opacity:1;stroke-dasharray:none"
           id="path6877" />
        <path
           d="M 35.1518 256.5 C 35.1518 378.195 133.805 476.848 255.5 476.848 L 255.501 476.848 C 377.195 476.848 475.848 378.195 475.848 256.5"
           style="fill:none;fill-opacity:0.298039;stroke:#000000;stroke-width:0.9;stroke-linejoin:round;paint-order:stroke fill markers;stroke-opacity:1;stroke-dasharray:none"
           id="path6879" />
        <path
           d="M 35.1518 256.5 C 35.1518 378.195 133.805 476.848 255.5 476.848 L 255.501 476.848 C 377.195 476.848 475.848 378.195 475.848 256.5"
           style="fill:none;fill-opacity:0.298039;stroke:#000000;stroke-width:0.9;stroke-linejoin:round;paint-order:stroke fill markers;stroke-opacity:1;stroke-dasharray:none"
           id="path6881" />
        <path
           d="M 35.1518 256.5 C 35.1518 378.195 133.805 476.848 255.5 476.848 L 255.501 476.848 C 377.195 476.848 475.848 378.195 475.848 256.5"
           style="fill:none;fill-opacity:0.298039;stroke:#000000;stroke-width:0.9;stroke-linejoin:round;paint-order:stroke fill markers;stroke-opacity:1;stroke-dasharray:none"
           id="path6883" />
        <path
           d="M 35.1518 256.5 C 35.1518 378.195 133.805 476.848 255.5 476.848 L 255.501 476.848 C 377.195 476.848 475.848 378.195 475.848 256.5"
           style="fill:none;fill-opacity:0.298039;stroke:#000000;stroke-width:0.9;stroke-linejoin:round;paint-order:stroke fill markers;stroke-opacity:1;stroke-dasharray:none"
           id="path6885" />
        <path
           d="M 35.1518 256.5 C 35.1518 378.195 133.805 476.848 255.5 476.848 L 255.501 476.848 C 377.195 476.848 475.848 378.195 475.848 256.5"
           style="fill:none;fill-opacity:0.298039;stroke:#000000;stroke-width:0.9;stroke-linejoin:round;paint-order:stroke fill markers;stroke-opacity:1;stroke-dasharray:none"
           id="path6887" />
        <path
           d="M 35.1518 256.5 C 35.1518 378.195 133.805 476.848 255.5 476.848 L 255.501 476.848 C 377.195 476.848 475.848 378.195 475.848 256.5"
           style="fill:none;fill-opacity:0.298039;stroke:#000000;stroke-width:0.9;stroke-linejoin:round;paint-order:stroke fill markers;stroke-opacity:1;stroke-dasharray:none"
           id="path6889" />
        <path
           d="M 35.1518 256.5 C 35.1518 378.195 133.805 476.848 255.5 476.848 L 255.501 476.848 C 377.195 476.848 475.848 378.195 475.848 256.5"
           style="fill:none;fill-opacity:0.298039;stroke:#000000;stroke-width:0.9;stroke-linejoin:round;paint-order:stroke fill markers;stroke-opacity:1;stroke-dasharray:none"
           id="path6891" />
        <path
           d="M 35.1518 256.5 C 35.1518 378.195 133.805 476.848 255.5 476.848 L 255.501 476.848 C 377.195 476.848 475.848 378.195 475.848 256.5"
           style="fill:none;fill-opacity:0.298039;stroke:#000000;stroke-width:0.9;stroke-linejoin:round;paint-order:stroke fill markers;stroke-opacity:1;stroke-dasharray:none"
           id="path6893" />
        <path
           d="M 35.1518 256.5 C 35.1518 378.195 133.805 476.848 255.5 476.848 L 255.501 476.848 C 377.195 476.848 475.848 378.195 475.848 256.5"
           style="fill:none;fill-opacity:0.298039;stroke:#000000;stroke-width:0.9;stroke-linejoin:round;paint-order:stroke fill markers;stroke-opacity:1;stroke-dasharray:none"
           id="path6895" />
        <path
           d="M 35.1518 256.5 C 35.1518 378.195 133.805 476.848 255.5 476.848 L 255.501 476.848 C 377.195 476.848 475.848 378.195 475.848 256.5"
           style="fill:none;fill-opacity:0.298039;stroke:#000000;stroke-width:0.9;stroke-linejoin:round;paint-order:stroke fill markers;stroke-opacity:1;stroke-dasharray:none"
           id="path6897" />
        <path
           d="M 35.1518 256.5 C 35.1518 378.195 133.805 476.848 255.5 476.848 L 255.501 476.848 C 377.195 476.848 475.848 378.195 475.848 256.5"
           style="fill:none;fill-opacity:0.298039;stroke:#000000;stroke-width:0.9;stroke-linejoin:round;paint-order:stroke fill markers;stroke-opacity:1;stroke-dasharray:none"
           id="path6899" />
      </g>
      <g
         id="g7005"
         style="stroke:#000000;stroke-opacity:1;stroke-width:0.9;stroke-dasharray:none">
        <path
           d="M 35.1518 256.5 C 35.1518 134.805 133.805 36.1518 255.5 36.1518 L 255.501 36.1518 C 377.195 36.1522 475.848 134.805 475.848 256.5"
           style="fill:none;fill-opacity:0.298039;stroke:#000000;stroke-width:0.9;stroke-linejoin:round;paint-order:stroke fill markers;stroke-opacity:1;stroke-dasharray:none"
           id="path6971" />
        <path
           d="M 35.1518 256.5 C 35.1518 150.017 133.805 63.6954 255.5 63.6954 L 255.501 63.6954 C 377.195 63.6957 475.848 150.017 475.848 256.5"
           style="fill:none;fill-opacity:0.298039;stroke:#000000;stroke-width:0.9;stroke-linejoin:round;paint-order:stroke fill markers;stroke-opacity:1;stroke-dasharray:none"
           id="path6973" />
        <path
           d="M 35.1518 256.5 C 35.1518 165.229 133.805 91.2389 255.5 91.2389 L 255.501 91.2389 C 377.195 91.2392 475.848 165.229 475.848 256.5"
           style="fill:none;fill-opacity:0.298039;stroke:#000000;stroke-width:0.9;stroke-linejoin:round;paint-order:stroke fill markers;stroke-opacity:1;stroke-dasharray:none"
           id="path6975" />
        <path
           d="M 35.1518 256.5 C 35.1518 180.441 133.805 118.782 255.5 118.782 L 255.501 118.782 C 377.195 118.783 475.848 180.441 475.848 256.5"
           style="fill:none;fill-opacity:0.298039;stroke:#000000;stroke-width:0.9;stroke-linejoin:round;paint-order:stroke fill markers;stroke-opacity:1;stroke-dasharray:none"
           id="path6977" />
        <path
           d="M 35.1518 256.5 C 35.1518 195.653 133.805 146.326 255.5 146.326 L 255.501 146.326 C 377.195 146.326 475.848 195.653 475.848 256.5"
           style="fill:none;fill-opacity:0.298039;stroke:#000000;stroke-width:0.9;stroke-linejoin:round;paint-order:stroke fill markers;stroke-opacity:1;stroke-dasharray:none"
           id="path6979" />
        <path
           d="M 35.1518 256.5 C 35.1518 210.864 133.805 173.869 255.5 173.869 L 255.501 173.869 C 377.195 173.87 475.848 210.864 475.848 256.5"
           style="fill:none;fill-opacity:0.298039;stroke:#000000;stroke-width:0.9;stroke-linejoin:round;paint-order:stroke fill markers;stroke-opacity:1;stroke-dasharray:none"
           id="path6981" />
        <path
           d="M 35.1518 256.5 C 35.1518 226.076 133.805 201.413 255.5 201.413 L 255.501 201.413 C 377.195 201.413 475.848 226.076 475.848 256.5"
           style="fill:none;fill-opacity:0.298039;stroke:#000000;stroke-width:0.9;stroke-linejoin:round;paint-order:stroke fill markers;stroke-opacity:1;stroke-dasharray:none"
           id="path6983" />
        <path
           d="M 35.1518 256.5 C 35.1518 241.288 133.805 228.956 255.5 228.956 L 255.501 228.956 C 377.195 228.957 475.848 241.288 475.848 256.5"
           style="fill:none;fill-opacity:0.298039;stroke:#000000;stroke-width:0.9;stroke-linejoin:round;paint-order:stroke fill markers;stroke-opacity:1;stroke-dasharray:none"
           id="path6985" />
        <path
           d="M 35.1518 256.5 L 255.5 256.5 L 255.501 256.5 L 475.848 256.5"
           style="fill:none;fill-opacity:0.298039;stroke:#000000;stroke-width:0.9;stroke-linejoin:round;paint-order:stroke fill markers;stroke-opacity:1;stroke-dasharray:none"
           id="path6987" />
        <path
           d="M 35.1518 256.5 C 35.1518 271.712 133.805 284.044 255.5 284.044 L 255.501 284.044 C 377.195 284.043 475.848 271.712 475.848 256.5"
           style="fill:none;fill-opacity:0.298039;stroke:#000000;stroke-width:0.9;stroke-linejoin:round;paint-order:stroke fill markers;stroke-opacity:1;stroke-dasharray:none"
           id="path6989" />
        <path
           d="M 35.1518 256.5 C 35.1518 286.924 133.805 311.587 255.5 311.587 L 255.501 311.587 C 377.195 311.587 475.848 286.924 475.848 256.5"
           style="fill:none;fill-opacity:0.298039;stroke:#000000;stroke-width:0.9;stroke-linejoin:round;paint-order:stroke fill markers;stroke-opacity:1;stroke-dasharray:none"
           id="path6991" />
        <path
           d="M 35.1518 256.5 C 35.1518 302.136 133.805 339.131 255.5 339.131 L 255.501 339.131 C 377.195 339.13 475.848 302.136 475.848 256.5"
           style="fill:none;fill-opacity:0.298039;stroke:#000000;stroke-width:0.9;stroke-linejoin:round;paint-order:stroke fill markers;stroke-opacity:1;stroke-dasharray:none"
           id="path6993" />
        <path
           d="M 35.1518 256.5 C 35.1518 317.347 133.805 366.674 255.5 366.674 L 255.501 366.674 C 377.195 366.674 475.848 317.347 475.848 256.5"
           style="fill:none;fill-opacity:0.298039;stroke:#000000;stroke-width:0.9;stroke-linejoin:round;paint-order:stroke fill markers;stroke-opacity:1;stroke-dasharray:none"
           id="path6995" />
        <path
           d="M 35.1518 256.5 C 35.1518 332.559 133.805 394.218 255.5 394.218 L 255.501 394.218 C 377.195 394.217 475.848 332.559 475.848 256.5"
           style="fill:none;fill-opacity:0.298039;stroke:#000000;stroke-width:0.9;stroke-linejoin:round;paint-order:stroke fill markers;stroke-opacity:1;stroke-dasharray:none"
           id="path6997" />
        <path
           d="M 35.1518 256.5 C 35.1518 347.771 133.805 421.761 255.5 421.761 L 255.501 421.761 C 377.195 421.761 475.848 347.771 475.848 256.5"
           style="fill:none;fill-opacity:0.298039;stroke:#000000;stroke-width:0.9;stroke-linejoin:round;paint-order:stroke fill markers;stroke-opacity:1;stroke-dasharray:none"
           id="path6999" />
        <path
           d="M 35.1518 256.5 C 35.1518 362.983 133.805 449.305 255.5 449.305 L 255.501 449.305 C 377.195 449.304 475.848 362.983 475.848 256.5"
           style="fill:none;fill-opacity:0.298039;stroke:#000000;stroke-width:0.9;stroke-linejoin:round;paint-order:stroke fill markers;stroke-opacity:1;stroke-dasharray:none"
           id="path7001" />
        <path
           d="M 35.1518 256.5 C 35.1518 378.195 133.805 476.848 255.5 476.848 L 255.501 476.848 C 377.195 476.848 475.848 378.195 475.848 256.5"
           style="fill:none;fill-opacity:0.298039;stroke:#000000;stroke-width:0.9;stroke-linejoin:round;paint-order:stroke fill markers;stroke-opacity:1;stroke-dasharray:none"
           id="path7003" />
      </g>
    </g>
    <g
       id="g7143"
       transform="rotate(-90,255.49998,256.49998)"
       style="stroke:#000000;stroke-opacity:1;stroke-width:0.9;stroke-dasharray:none">
      <path
         id="path7067"
         style="fill:none;fill-opacity:0.298039;stroke:#000000;stroke-width:0.9;stroke-linejoin:round;paint-order:stroke fill markers;stroke-opacity:1;stroke-dasharray:none"
         d="m 35.15184,256.5 c 0,-121.69493 98.65323,-220.34816 220.34816,-220.34816 121.69493,0 220.34816,98.65323 220.34816,220.34816"
         sodipodi:nodetypes="csc" />
      <path
         id="path7069"
         style="fill:none;fill-opacity:0.298039;stroke:#000000;stroke-width:0.9;stroke-linejoin:round;paint-order:stroke fill markers;stroke-opacity:1;stroke-dasharray:none"
         d="m 35.15184,256.5 c 0,121.69493 98.65323,220.34816 220.34816,220.34816 121.69493,0 220.34816,-98.65323 220.34816,-220.34816"
         sodipodi:nodetypes="csc" />
      <g
         id="g7105"
         style="stroke:#000000;stroke-opacity:1;stroke-width:0.9;stroke-dasharray:none">
        <path
           d="M 35.1518,256.5 C 35.1518,134.805 133.805,36.1518 255.5,36.1518 h 0.001 c 121.694,4e-4 220.347,98.6532 220.347,220.3482"
           style="fill:none;fill-opacity:0.298039;stroke:#000000;stroke-width:0.9;stroke-linejoin:round;paint-order:stroke fill markers;stroke-opacity:1;stroke-dasharray:none"
           id="path7071" />
        <path
           d="m 35.1518,256.5 c 0,121.695 98.6532,220.348 220.3482,220.348 h 0.001 c 121.694,0 220.347,-98.653 220.347,-220.348"
           style="fill:none;fill-opacity:0.298039;stroke:#000000;stroke-width:0.9;stroke-linejoin:round;paint-order:stroke fill markers;stroke-opacity:1;stroke-dasharray:none"
           id="path7073" />
        <path
           d="m 35.1518,256.5 c 0,121.695 98.6532,220.348 220.3482,220.348 h 0.001 c 121.694,0 220.347,-98.653 220.347,-220.348"
           style="fill:none;fill-opacity:0.298039;stroke:#000000;stroke-width:0.9;stroke-linejoin:round;paint-order:stroke fill markers;stroke-opacity:1;stroke-dasharray:none"
           id="path7075" />
        <path
           d="m 35.1518,256.5 c 0,121.695 98.6532,220.348 220.3482,220.348 h 0.001 c 121.694,0 220.347,-98.653 220.347,-220.348"
           style="fill:none;fill-opacity:0.298039;stroke:#000000;stroke-width:0.9;stroke-linejoin:round;paint-order:stroke fill markers;stroke-opacity:1;stroke-dasharray:none"
           id="path7077" />
        <path
           d="m 35.1518,256.5 c 0,121.695 98.6532,220.348 220.3482,220.348 h 0.001 c 121.694,0 220.347,-98.653 220.347,-220.348"
           style="fill:none;fill-opacity:0.298039;stroke:#000000;stroke-width:0.9;stroke-linejoin:round;paint-order:stroke fill markers;stroke-opacity:1;stroke-dasharray:none"
           id="path7079" />
        <path
           d="m 35.1518,256.5 c 0,121.695 98.6532,220.348 220.3482,220.348 h 0.001 c 121.694,0 220.347,-98.653 220.347,-220.348"
           style="fill:none;fill-opacity:0.298039;stroke:#000000;stroke-width:0.9;stroke-linejoin:round;paint-order:stroke fill markers;stroke-opacity:1;stroke-dasharray:none"
           id="path7081" />
        <path
           d="m 35.1518,256.5 c 0,121.695 98.6532,220.348 220.3482,220.348 h 0.001 c 121.694,0 220.347,-98.653 220.347,-220.348"
           style="fill:none;fill-opacity:0.298039;stroke:#000000;stroke-width:0.9;stroke-linejoin:round;paint-order:stroke fill markers;stroke-opacity:1;stroke-dasharray:none"
           id="path7083" />
        <path
           d="m 35.1518,256.5 c 0,121.695 98.6532,220.348 220.3482,220.348 h 0.001 c 121.694,0 220.347,-98.653 220.347,-220.348"
           style="fill:none;fill-opacity:0.298039;stroke:#000000;stroke-width:0.9;stroke-linejoin:round;paint-order:stroke fill markers;stroke-opacity:1;stroke-dasharray:none"
           id="path7085" />
        <path
           d="m 35.1518,256.5 c 0,121.695 98.6532,220.348 220.3482,220.348 h 0.001 c 121.694,0 220.347,-98.653 220.347,-220.348"
           style="fill:none;fill-opacity:0.298039;stroke:#000000;stroke-width:0.9;stroke-linejoin:round;paint-order:stroke fill markers;stroke-opacity:1;stroke-dasharray:none"
           id="path7087" />
        <path
           d="m 35.1518,256.5 c 0,121.695 98.6532,220.348 220.3482,220.348 h 0.001 c 121.694,0 220.347,-98.653 220.347,-220.348"
           style="fill:none;fill-opacity:0.298039;stroke:#000000;stroke-width:0.9;stroke-linejoin:round;paint-order:stroke fill markers;stroke-opacity:1;stroke-dasharray:none"
           id="path7089" />
        <path
           d="m 35.1518,256.5 c 0,121.695 98.6532,220.348 220.3482,220.348 h 0.001 c 121.694,0 220.347,-98.653 220.347,-220.348"
           style="fill:none;fill-opacity:0.298039;stroke:#000000;stroke-width:0.9;stroke-linejoin:round;paint-order:stroke fill markers;stroke-opacity:1;stroke-dasharray:none"
           id="path7091" />
        <path
           d="m 35.1518,256.5 c 0,121.695 98.6532,220.348 220.3482,220.348 h 0.001 c 121.694,0 220.347,-98.653 220.347,-220.348"
           style="fill:none;fill-opacity:0.298039;stroke:#000000;stroke-width:0.9;stroke-linejoin:round;paint-order:stroke fill markers;stroke-opacity:1;stroke-dasharray:none"
           id="path7093" />
        <path
           d="m 35.1518,256.5 c 0,121.695 98.6532,220.348 220.3482,220.348 h 0.001 c 121.694,0 220.347,-98.653 220.347,-220.348"
           style="fill:none;fill-opacity:0.298039;stroke:#000000;stroke-width:0.9;stroke-linejoin:round;paint-order:stroke fill markers;stroke-opacity:1;stroke-dasharray:none"
           id="path7095" />
        <path
           d="m 35.1518,256.5 c 0,121.695 98.6532,220.348 220.3482,220.348 h 0.001 c 121.694,0 220.347,-98.653 220.347,-220.348"
           style="fill:none;fill-opacity:0.298039;stroke:#000000;stroke-width:0.9;stroke-linejoin:round;paint-order:stroke fill markers;stroke-opacity:1;stroke-dasharray:none"
           id="path7097" />
        <path
           d="m 35.1518,256.5 c 0,121.695 98.6532,220.348 220.3482,220.348 h 0.001 c 121.694,0 220.347,-98.653 220.347,-220.348"
           style="fill:none;fill-opacity:0.298039;stroke:#000000;stroke-width:0.9;stroke-linejoin:round;paint-order:stroke fill markers;stroke-opacity:1;stroke-dasharray:none"
           id="path7099" />
        <path
           d="m 35.1518,256.5 c 0,121.695 98.6532,220.348 220.3482,220.348 h 0.001 c 121.694,0 220.347,-98.653 220.347,-220.348"
           style="fill:none;fill-opacity:0.298039;stroke:#000000;stroke-width:0.9;stroke-linejoin:round;paint-order:stroke fill markers;stroke-opacity:1;stroke-dasharray:none"
           id="path7101" />
        <path
           d="m 35.1518,256.5 c 0,121.695 98.6532,220.348 220.3482,220.348 h 0.001 c 121.694,0 220.347,-98.653 220.347,-220.348"
           style="fill:none;fill-opacity:0.298039;stroke:#000000;stroke-width:0.9;stroke-linejoin:round;paint-order:stroke fill markers;stroke-opacity:1;stroke-dasharray:none"
           id="path7103" />
      </g>
      <g
         id="g7141"
         style="stroke:#000000;stroke-opacity:1;stroke-width:0.9;stroke-dasharray:none">
        <path
           d="M 35.1518,256.5 C 35.1518,134.805 133.805,36.1518 255.5,36.1518 h 0.001 c 121.694,4e-4 220.347,98.6532 220.347,220.3482"
           style="fill:none;fill-opacity:0.298039;stroke:#000000;stroke-width:0.9;stroke-linejoin:round;paint-order:stroke fill markers;stroke-opacity:1;stroke-dasharray:none"
           id="path7107" />
        <path
           d="M 35.1518,256.5 C 35.1518,150.017 133.805,63.6954 255.5,63.6954 h 0.001 c 121.694,3e-4 220.347,86.3216 220.347,192.8046"
           style="fill:none;fill-opacity:0.298039;stroke:#000000;stroke-width:0.9;stroke-linejoin:round;paint-order:stroke fill markers;stroke-opacity:1;stroke-dasharray:none"
           id="path7109" />
        <path
           d="M 35.1518,256.5 C 35.1518,165.229 133.805,91.2389 255.5,91.2389 h 0.001 c 121.694,3e-4 220.347,73.9901 220.347,165.2611"
           style="fill:none;fill-opacity:0.298039;stroke:#000000;stroke-width:0.9;stroke-linejoin:round;paint-order:stroke fill markers;stroke-opacity:1;stroke-dasharray:none"
           id="path7111" />
        <path
           d="m 35.1518,256.5 c 0,-76.059 98.6532,-137.718 220.3482,-137.718 h 0.001 c 121.694,0.001 220.347,61.659 220.347,137.718"
           style="fill:none;fill-opacity:0.298039;stroke:#000000;stroke-width:0.9;stroke-linejoin:round;paint-order:stroke fill markers;stroke-opacity:1;stroke-dasharray:none"
           id="path7113" />
        <path
           d="m 35.1518,256.5 c 0,-60.847 98.6532,-110.174 220.3482,-110.174 h 0.001 c 121.694,0 220.347,49.327 220.347,110.174"
           style="fill:none;fill-opacity:0.298039;stroke:#000000;stroke-width:0.9;stroke-linejoin:round;paint-order:stroke fill markers;stroke-opacity:1;stroke-dasharray:none"
           id="path7115" />
        <path
           d="m 35.1518,256.5 c 0,-45.636 98.6532,-82.631 220.3482,-82.631 h 0.001 c 121.694,0.001 220.347,36.995 220.347,82.631"
           style="fill:none;fill-opacity:0.298039;stroke:#000000;stroke-width:0.9;stroke-linejoin:round;paint-order:stroke fill markers;stroke-opacity:1;stroke-dasharray:none"
           id="path7117" />
        <path
           d="m 35.1518,256.5 c 0,-30.424 98.6532,-55.087 220.3482,-55.087 h 0.001 c 121.694,0 220.347,24.663 220.347,55.087"
           style="fill:none;fill-opacity:0.298039;stroke:#000000;stroke-width:0.9;stroke-linejoin:round;paint-order:stroke fill markers;stroke-opacity:1;stroke-dasharray:none"
           id="path7119" />
        <path
           d="m 35.1518,256.5 c 0,-15.212 98.6532,-27.544 220.3482,-27.544 h 0.001 c 121.694,0.001 220.347,12.332 220.347,27.544"
           style="fill:none;fill-opacity:0.298039;stroke:#000000;stroke-width:0.9;stroke-linejoin:round;paint-order:stroke fill markers;stroke-opacity:1;stroke-dasharray:none"
           id="path7121" />
        <path
           d="M 35.1518,256.5 H 255.5 h 0.001 220.347"
           style="fill:none;fill-opacity:0.298039;stroke:#000000;stroke-width:0.9;stroke-linejoin:round;paint-order:stroke fill markers;stroke-opacity:1;stroke-dasharray:none"
           id="path7123" />
        <path
           d="m 35.1518,256.5 c 0,15.212 98.6532,27.544 220.3482,27.544 h 0.001 C 377.195,284.043 475.848,271.712 475.848,256.5"
           style="fill:none;fill-opacity:0.298039;stroke:#000000;stroke-width:0.9;stroke-linejoin:round;paint-order:stroke fill markers;stroke-opacity:1;stroke-dasharray:none"
           id="path7125" />
        <path
           d="m 35.1518,256.5 c 0,30.424 98.6532,55.087 220.3482,55.087 h 0.001 c 121.694,0 220.347,-24.663 220.347,-55.087"
           style="fill:none;fill-opacity:0.298039;stroke:#000000;stroke-width:0.9;stroke-linejoin:round;paint-order:stroke fill markers;stroke-opacity:1;stroke-dasharray:none"
           id="path7127" />
        <path
           d="m 35.1518,256.5 c 0,45.636 98.6532,82.631 220.3482,82.631 h 0.001 C 377.195,339.13 475.848,302.136 475.848,256.5"
           style="fill:none;fill-opacity:0.298039;stroke:#000000;stroke-width:0.9;stroke-linejoin:round;paint-order:stroke fill markers;stroke-opacity:1;stroke-dasharray:none"
           id="path7129" />
        <path
           d="m 35.1518,256.5 c 0,60.847 98.6532,110.174 220.3482,110.174 h 0.001 c 121.694,0 220.347,-49.327 220.347,-110.174"
           style="fill:none;fill-opacity:0.298039;stroke:#000000;stroke-width:0.9;stroke-linejoin:round;paint-order:stroke fill markers;stroke-opacity:1;stroke-dasharray:none"
           id="path7131" />
        <path
           d="m 35.1518,256.5 c 0,76.059 98.6532,137.718 220.3482,137.718 h 0.001 C 377.195,394.217 475.848,332.559 475.848,256.5"
           style="fill:none;fill-opacity:0.298039;stroke:#000000;stroke-width:0.9;stroke-linejoin:round;paint-order:stroke fill markers;stroke-opacity:1;stroke-dasharray:none"
           id="path7133" />
        <path
           d="m 35.1518,256.5 c 0,91.271 98.6532,165.261 220.3482,165.261 h 0.001 c 121.694,0 220.347,-73.99 220.347,-165.261"
           style="fill:none;fill-opacity:0.298039;stroke:#000000;stroke-width:0.9;stroke-linejoin:round;paint-order:stroke fill markers;stroke-opacity:1;stroke-dasharray:none"
           id="path7135" />
        <path
           d="m 35.1518,256.5 c 0,106.483 98.6532,192.805 220.3482,192.805 h 0.001 C 377.195,449.304 475.848,362.983 475.848,256.5"
           style="fill:none;fill-opacity:0.298039;stroke:#000000;stroke-width:0.9;stroke-linejoin:round;paint-order:stroke fill markers;stroke-opacity:1;stroke-dasharray:none"
           id="path7137" />
        <path
           d="m 35.1518,256.5 c 0,121.695 98.6532,220.348 220.3482,220.348 h 0.001 c 121.694,0 220.347,-98.653 220.347,-220.348"
           style="fill:none;fill-opacity:0.298039;stroke:#000000;stroke-width:0.9;stroke-linejoin:round;paint-order:stroke fill markers;stroke-opacity:1;stroke-dasharray:none"
           id="path7139" />
      </g>
    </g>
  </g>
</svg>
