<?xml version="1.0" encoding="UTF-8" standalone="no"?><svg xmlns="http://www.w3.org/2000/svg" xmlns:xlink="http://www.w3.org/1999/xlink" contentStyleType="text/css" height="220px" preserveAspectRatio="none" style="width:730px;height:220px;background:#FFFFFF;" version="1.1" viewBox="0 0 730 220" width="730px" zoomAndPan="magnify"><defs/><g><!--MD5=[323c25cdec349f5ea5907cb1b91ccd49]
entity Waiter--><g id="elem_Waiter"><ellipse cx="444.5" cy="14" fill="#F1F1F1" rx="8" ry="8" style="stroke:#181818;stroke-width:0.5;"/><path d="M444.5,22 L444.5,49 M431.5,30 L457.5,30 M444.5,49 L431.5,64 M444.5,49 L457.5,64 " fill="none" style="stroke:#181818;stroke-width:0.5;"/><text fill="#000000" font-family="sans-serif" font-size="14" lengthAdjust="spacing" textLength="41" x="424" y="80.0332">Waiter</text></g><g id="elem_change order status"><ellipse cx="91.2698" cy="187.954" fill="#F1F1F1" rx="85.2698" ry="19.454" style="stroke:#181818;stroke-width:0.5;"/><text fill="#000000" font-family="sans-serif" font-size="14" lengthAdjust="spacing" textLength="127" x="27.7698" y="191.6825">change order status</text></g><g id="elem_read the order supplement email"><ellipse cx="332.591" cy="187.9182" fill="#F1F1F1" rx="120.091" ry="26.4182" style="stroke:#181818;stroke-width:0.5;"/><text fill="#000000" font-family="sans-serif" font-size="14" lengthAdjust="spacing" textLength="205" x="230.091" y="191.6467">read the order supplement email</text></g><g id="elem_delete orders"><ellipse cx="556.2688" cy="188.1538" fill="#F1F1F1" rx="68.7688" ry="16.1538" style="stroke:#181818;stroke-width:0.5;"/><text fill="#000000" font-family="sans-serif" font-size="14" lengthAdjust="spacing" textLength="84" x="511.2688" y="192.6704">delete orders</text></g><g id="elem_bar3"><ellipse cx="692.4914" cy="187.9517" fill="#F1F1F1" rx="31.9914" ry="15.4517" style="stroke:#181818;stroke-width:0.5;"/><text fill="#000000" font-family="sans-serif" font-size="14" lengthAdjust="spacing" textLength="29" x="677.9914" y="191.6802">bar3</text></g><!--MD5=[8c819f51bfd73add5f22259c3cd990e3]
link Waiter to change order status--><g id="link_Waiter_change order status"><path d="M424,53.72 C368.49,75.97 214.29,137.78 136.95,168.78 " fill="none" id="Waiter-to-change order status" style="stroke:#181818;stroke-width:1.0;"/><polygon fill="#181818" points="131.97,170.78,141.8119,171.1514,136.6124,168.923,138.8407,163.7236,131.97,170.78" style="stroke:#181818;stroke-width:1.0;"/><text fill="#000000" font-family="sans-serif" font-size="13" lengthAdjust="spacing" textLength="39" x="269.5" y="127.9951">normal</text></g><!--MD5=[2035c6564248dda0aeb4e1b5ef0b0528]
link Waiter to read the order supplement email--><g id="link_Waiter_read the order supplement email"><path d="M423.96,71.45 C404.66,95.84 375.81,132.29 355.69,157.71 " fill="none" id="Waiter-to-read the order supplement email" style="stroke:#FF0000;stroke-width:2.0;"/><polygon fill="#FF0000" points="352.54,161.69,361.2634,157.118,355.6442,157.7704,354.9919,152.1512,352.54,161.69" style="stroke:#FF0000;stroke-width:2.0;"/><text fill="#FF0000" font-family="sans-serif" font-size="13" lengthAdjust="spacing" textLength="46" x="389.5" y="127.9951">red bold</text></g><!--MD5=[8d52824ed838eace082cc3dcc9cb08ef]
link Waiter to delete orders--><g id="link_Waiter_delete orders"><path d="M465.04,71.45 C487.13,99.36 521.72,143.06 541.42,167.95 " fill="none" id="Waiter-to-delete orders" style="stroke:#008000;stroke-width:1.0;stroke-dasharray:7.0,7.0;"/><polygon fill="#008000" points="544.69,172.08,542.255,162.5369,541.5927,168.1549,535.9748,167.4926,544.69,172.08" style="stroke:#008000;stroke-width:1.0;"/><text fill="#008000" font-family="sans-serif" font-size="13" lengthAdjust="spacing" textLength="78" x="512.5" y="127.9951">green dashed</text></g><!--MD5=[1f61eddf8453030ed23dc657f133bcee]
link Waiter to bar3--><g id="link_Waiter_bar3"><path d="M465.13,52.63 C495.63,63.58 554.04,86.18 599.5,113.5 C627.38,130.25 656.28,154.34 674.32,170.31 " fill="none" id="Waiter-to-bar3" style="stroke:#0000FF;stroke-width:1.0;stroke-dasharray:1.0,3.0;"/><polygon fill="#0000FF" points="678.22,173.79,674.1699,164.8124,674.4901,170.4602,668.8423,170.7803,678.22,173.79" style="stroke:#0000FF;stroke-width:1.0;"/><text fill="#0000FF" font-family="sans-serif" font-size="13" lengthAdjust="spacing" textLength="64" x="624.5" y="127.9951">blue dotted</text></g><!--MD5=[02cc2f29420b2198ae5fd50ff22824e9]
@startuml
actor Waiter
Waiter - -> (change order status) : normal
Waiter - -> (read the order supplement email) #line:red;line.bold;text:red  : red bold
Waiter - -> (delete orders) #green;line.dashed;text:green : green dashed 
Waiter - -> (bar3) #blue;line.dotted;text:blue   : blue dotted
@enduml

PlantUML version 1.2022.7(Mon Aug 22 19:01:30 CEST 2022)
(GPL source distribution)
Java Runtime: Java(TM) SE Runtime Environment
JVM: Java HotSpot(TM) 64-Bit Server VM
Default Encoding: Cp1252
Language: de
Country: DE
--></g></svg>