<?xml version="1.0" encoding="UTF-8" standalone="no"?><svg xmlns="http://www.w3.org/2000/svg" xmlns:xlink="http://www.w3.org/1999/xlink" contentStyleType="text/css" height="450px" preserveAspectRatio="none" style="width:816px;height:450px;background:#FFFFFF;" version="1.1" viewBox="0 0 816 450" width="816px" zoomAndPan="magnify"><defs/><g><rect fill="#F1F1F1" height="37.6094" rx="12.5" ry="12.5" style="stroke:#181818;stroke-width:1.5;" width="142" x="488" y="205.2656"/><text fill="#000000" font-family="sans-serif" font-size="14" lengthAdjust="spacing" textLength="122" x="498" y="229.7988">Symfony menu App</text><rect fill="#ADD8E6" height="37.6094" rx="12.5" ry="12.5" style="stroke:#181818;stroke-width:1.5;" width="124" x="680" y="205.2656"/><text fill="#000000" font-family="sans-serif" font-size="14" lengthAdjust="spacing" textLength="100" x="690" y="229.7988">php bin/console</text><path d="M630,224.0703 L640,224.0703 C655,224.0703 655,224.0703 670,224.0703 L680,224.0703 " fill="none" style="stroke:#181818;stroke-width:1.0;"/><text fill="#000000" font-family="sans-serif" font-size="14" lengthAdjust="spacing" textLength="89" x="342" y="25.5332">1. mkdir menu</text><path d="M488,224.0703 L478,224.0703 C463,224.0703 463,19.8047 448,19.8047 L438,19.8047 " fill="none" style="stroke:#181818;stroke-width:1.0;"/><rect fill="#90EE90" height="37.6094" rx="12.5" ry="12.5" style="stroke:#181818;stroke-width:1.5;" width="385" x="53" y="39.6094"/><text fill="#000000" font-family="sans-serif" font-size="14" lengthAdjust="spacing" textLength="361" x="63" y="64.1426">2. composer create-project symfony/skeleton:"^5.4" menu</text><path d="M488,224.0703 L478,224.0703 C463,224.0703 463,58.4141 448,58.4141 L438,58.4141 " fill="none" style="stroke:#181818;stroke-width:1.0;"/><text fill="#000000" font-family="sans-serif" font-size="14" lengthAdjust="spacing" textLength="70" x="361" y="102.752">3. cd menu</text><path d="M488,224.0703 L478,224.0703 C463,224.0703 463,97.0234 448,97.0234 L438,97.0234 " fill="none" style="stroke:#181818;stroke-width:1.0;"/><rect fill="#FFBBCC" height="143.2656" rx="12.5" ry="12.5" style="stroke:#181818;stroke-width:1.5;" width="240" x="198" y="116.8281"/><text fill="#000000" font-family="sans-serif" font-size="14" lengthAdjust="spacing" textLength="125" x="208" y="141.3613">composer req make</text><text fill="#000000" font-family="sans-serif" font-size="14" lengthAdjust="spacing" textLength="115" x="208" y="158.9707">composer req twig</text><text fill="#000000" font-family="sans-serif" font-size="14" lengthAdjust="spacing" textLength="220" x="208" y="176.5801">composer req doctrine/annotations</text><text fill="#000000" font-family="sans-serif" font-size="14" lengthAdjust="spacing" textLength="142" x="208" y="194.1895">composer req doctrine</text><text fill="#000000" font-family="sans-serif" font-size="14" lengthAdjust="spacing" textLength="196" x="208" y="211.7988">composer req symfony/console</text><text fill="#000000" font-family="sans-serif" font-size="14" lengthAdjust="spacing" textLength="125" x="208" y="229.4082">composer req asset</text><text fill="#000000" font-family="sans-serif" font-size="14" lengthAdjust="spacing" textLength="119" x="208" y="247.0176">composer req form</text><path d="M488,224.0703 L478,224.0703 C463,224.0703 463,188.4609 448,188.4609 L438,188.4609 " fill="none" style="stroke:#181818;stroke-width:1.0;"/><rect fill="#FFA500" height="90.4375" rx="12.5" ry="12.5" style="stroke:#181818;stroke-width:1.5;" width="175" x="263" y="280.0938"/><text fill="#000000" font-family="sans-serif" font-size="14" lengthAdjust="spacing" textLength="155" x="273" y="304.627">symfony server:ca:install</text><text fill="#000000" font-family="sans-serif" font-size="14" lengthAdjust="spacing" textLength="145" x="273" y="322.2363">symfony server:start -d</text><text fill="#000000" font-family="sans-serif" font-size="14" lengthAdjust="spacing" textLength="127" x="273" y="339.8457">symfony server:stop</text><text fill="#000000" font-family="sans-serif" font-size="14" lengthAdjust="spacing" textLength="138" x="273" y="357.4551">symfony server:status</text><rect fill="#FFA500" height="55.2188" rx="12.5" ry="12.5" style="stroke:#181818;stroke-width:1.5;" width="203" x="10" y="297.7031"/><text fill="#000000" font-family="sans-serif" font-size="14" lengthAdjust="spacing" textLength="122" x="20" y="322.2363">symfony proxy:start</text><text fill="#000000" font-family="sans-serif" font-size="14" lengthAdjust="spacing" textLength="183" x="20" y="339.8457">symfony proxy:domain.attach</text><path d="M263,325.3125 L253,325.3125 C238,325.3125 238,325.3125 223,325.3125 L213,325.3125 " fill="none" style="stroke:#181818;stroke-width:1.0;"/><path d="M488,224.0703 L478,224.0703 C463,224.0703 463,325.3125 448,325.3125 L438,325.3125 " fill="none" style="stroke:#181818;stroke-width:1.0;"/><rect fill="#00D4FF" height="37.6094" rx="12.5" ry="12.5" style="stroke:#181818;stroke-width:1.5;" width="47" x="391" y="390.5313"/><text fill="#000000" font-family="sans-serif" font-size="14" lengthAdjust="spacing" textLength="27" x="401" y="415.0645">.env</text><path d="M488,224.0703 L478,224.0703 C463,224.0703 463,409.3359 448,409.3359 L438,409.3359 " fill="none" style="stroke:#181818;stroke-width:1.0;"/><!--MD5=[aaacefa65af9d3dc0cb9d7ab155874ab]
@startmindmap
<style>
mindmapDiagram {
  .lila {
    BackgroundColor #e700ff
  }
  .blau {
    BackgroundColor #00d4ff
  }
  .orange {
    BackgroundColor orange
  }
  .green {
    BackgroundColor lightgreen
  }
  .rose {
    BackgroundColor #FFBBCC
  }
  .your_style_name {
    BackgroundColor lightblue
  }
}
</style>
+ Symfony menu App
- -_ 1. mkdir menu 
- - 2. composer create-project symfony/skeleton:"^5.4" menu <<green>> 
- -_ 3. cd menu <<green>>
- - composer req make\ncomposer req twig\ncomposer req doctrine/annotations\ncomposer req doctrine\ncomposer req symfony/console\ncomposer req asset\ncomposer req form<<rose>>
- - symfony server:ca:install\nsymfony server:start -d\nsymfony server:stop\nsymfony server:status<<orange>>
- - - symfony proxy:start\nsymfony proxy:domain.attach<<orange>>
- - .env<<blau>>
++ php bin/console <<your_style_name>>
@endmindmap

PlantUML version 1.2022.7(Mon Aug 22 19:01:30 CEST 2022)
(GPL source distribution)
Java Runtime: Java(TM) SE Runtime Environment
JVM: Java HotSpot(TM) 64-Bit Server VM
Default Encoding: Cp1252
Language: de
Country: DE
--></g></svg>