<?xml version="1.0" encoding="UTF-8" standalone="no"?><svg xmlns="http://www.w3.org/2000/svg" xmlns:xlink="http://www.w3.org/1999/xlink" contentStyleType="text/css" height="576px" preserveAspectRatio="none" style="width:1056px;height:576px;background:#FFFFFF;" version="1.1" viewBox="0 0 1056 576" width="1056px" zoomAndPan="magnify"><defs/><g><rect fill="#FFF800" height="37.6094" rx="12.5" ry="12.5" style="stroke:#181818;stroke-width:1.5;" width="84" x="509" y="268.5078"/><text fill="#000000" font-family="sans-serif" font-size="14" lengthAdjust="spacing" textLength="64" x="519" y="293.041">menu App</text><rect fill="#F99C8C" height="37.6094" rx="12.5" ry="12.5" style="stroke:#181818;stroke-width:1.5;" width="175" x="643" y="190.6797"/><text fill="#000000" font-family="sans-serif" font-size="14" lengthAdjust="spacing" textLength="155" x="653" y="215.2129">php bin/console doctrine</text><text fill="#000000" font-family="sans-serif" font-size="14" lengthAdjust="spacing" textLength="107" x="871" y="195.6035">:database:create</text><path d="M818,209.4844 L828,209.4844 C843,209.4844 843,189.875 858,189.875 L868,189.875 " fill="none" style="stroke:#181818;stroke-width:1.0;"/><text fill="#000000" font-family="sans-serif" font-size="14" lengthAdjust="spacing" textLength="147" x="871" y="215.2129">:schema:update --force</text><path d="M818,209.4844 L828,209.4844 C843,209.4844 843,209.4844 858,209.4844 L868,209.4844 " fill="none" style="stroke:#181818;stroke-width:1.0;"/><text fill="#000000" font-family="sans-serif" font-size="14" lengthAdjust="spacing" textLength="173" x="871" y="234.8223">:schema:update --dump-sql</text><path d="M818,209.4844 L828,209.4844 C843,209.4844 843,229.0938 858,229.0938 L868,229.0938 " fill="none" style="stroke:#181818;stroke-width:1.0;"/><path d="M593,287.3125 L603,287.3125 C618,287.3125 618,209.4844 633,209.4844 L643,209.4844 " fill="none" style="stroke:#181818;stroke-width:1.0;"/><rect fill="#F99C8C" height="37.6094" rx="12.5" ry="12.5" style="stroke:#181818;stroke-width:1.5;" width="158" x="643" y="269.1172"/><text fill="#000000" font-family="sans-serif" font-size="14" lengthAdjust="spacing" textLength="138" x="653" y="293.6504">php bin/console make</text><text fill="#000000" font-family="sans-serif" font-size="14" lengthAdjust="spacing" textLength="137" x="854" y="254.4316">:entity [&lt;Name&gt;Entity]</text><path d="M801,287.9219 L811,287.9219 C826,287.9219 826,248.7031 841,248.7031 L851,248.7031 " fill="none" style="stroke:#181818;stroke-width:1.0;"/><text fill="#000000" font-family="sans-serif" font-size="14" lengthAdjust="spacing" textLength="122" x="854" y="274.041">:entity --regenerate</text><path d="M801,287.9219 L811,287.9219 C826,287.9219 826,268.3125 841,268.3125 L851,268.3125 " fill="none" style="stroke:#181818;stroke-width:1.0;"/><text fill="#000000" font-family="sans-serif" font-size="14" lengthAdjust="spacing" textLength="62" x="854" y="293.6504">:migration</text><path d="M801,287.9219 L811,287.9219 C826,287.9219 826,287.9219 841,287.9219 L851,287.9219 " fill="none" style="stroke:#181818;stroke-width:1.0;"/><text fill="#000000" font-family="sans-serif" font-size="14" lengthAdjust="spacing" textLength="189" x="854" y="313.2598">:controller [&lt;Name&gt;Controller]</text><path d="M801,287.9219 L811,287.9219 C826,287.9219 826,307.5313 841,307.5313 L851,307.5313 " fill="none" style="stroke:#181818;stroke-width:1.0;"/><text fill="#000000" font-family="sans-serif" font-size="14" lengthAdjust="spacing" textLength="32" x="854" y="332.8691">:form</text><path d="M801,287.9219 L811,287.9219 C826,287.9219 826,327.1406 841,327.1406 L851,327.1406 " fill="none" style="stroke:#181818;stroke-width:1.0;"/><path d="M593,287.3125 L603,287.3125 C618,287.3125 618,287.9219 633,287.9219 L643,287.9219 " fill="none" style="stroke:#181818;stroke-width:1.0;"/><rect fill="#F99C8C" height="37.6094" rx="12.5" ry="12.5" style="stroke:#181818;stroke-width:1.5;" width="168" x="643" y="346.9453"/><text fill="#000000" font-family="sans-serif" font-size="14" lengthAdjust="spacing" textLength="144" x="653" y="371.4785">php bin/console debug</text><text fill="#000000" font-family="sans-serif" font-size="14" lengthAdjust="spacing" textLength="42" x="864" y="371.4785">:router</text><path d="M811,365.75 L821,365.75 C836,365.75 836,365.75 851,365.75 L861,365.75 " fill="none" style="stroke:#181818;stroke-width:1.0;"/><path d="M593,287.3125 L603,287.3125 C618,287.3125 618,365.75 633,365.75 L643,365.75 " fill="none" style="stroke:#181818;stroke-width:1.0;"/><text fill="#000000" font-family="sans-serif" font-size="14" lengthAdjust="spacing" textLength="89" x="363" y="25.5332">1. mkdir menu</text><path d="M509,287.3125 L499,287.3125 C484,287.3125 484,19.8047 469,19.8047 L459,19.8047 " fill="none" style="stroke:#181818;stroke-width:1.0;"/><rect fill="#90EE90" height="37.6094" rx="12.5" ry="12.5" style="stroke:#181818;stroke-width:1.5;" width="385" x="74" y="39.6094"/><text fill="#000000" font-family="sans-serif" font-size="14" lengthAdjust="spacing" textLength="361" x="84" y="64.1426">2. composer create-project symfony/skeleton:"^5.4" menu</text><path d="M509,287.3125 L499,287.3125 C484,287.3125 484,58.4141 469,58.4141 L459,58.4141 " fill="none" style="stroke:#181818;stroke-width:1.0;"/><text fill="#000000" font-family="sans-serif" font-size="14" lengthAdjust="spacing" textLength="70" x="382" y="102.752">3. cd menu</text><path d="M509,287.3125 L499,287.3125 C484,287.3125 484,97.0234 469,97.0234 L459,97.0234 " fill="none" style="stroke:#181818;stroke-width:1.0;"/><rect fill="#F585FA" height="213.7031" rx="12.5" ry="12.5" style="stroke:#181818;stroke-width:1.5;" width="240" x="219" y="116.8281"/><text fill="#000000" font-family="sans-serif" font-size="14" lengthAdjust="spacing" textLength="125" x="229" y="141.3613">composer req make</text><text fill="#000000" font-family="sans-serif" font-size="14" lengthAdjust="spacing" textLength="115" x="229" y="158.9707">composer req twig</text><text fill="#000000" font-family="sans-serif" font-size="14" lengthAdjust="spacing" textLength="220" x="229" y="176.5801">composer req doctrine/annotations</text><text fill="#000000" font-family="sans-serif" font-size="14" lengthAdjust="spacing" textLength="142" x="229" y="194.1895">composer req doctrine</text><text fill="#000000" font-family="sans-serif" font-size="14" lengthAdjust="spacing" textLength="196" x="229" y="211.7988">composer req symfony/console</text><text fill="#000000" font-family="sans-serif" font-size="14" lengthAdjust="spacing" textLength="125" x="229" y="229.4082">composer req asset</text><text fill="#000000" font-family="sans-serif" font-size="14" lengthAdjust="spacing" textLength="119" x="229" y="247.0176">composer req form</text><text fill="#000000" font-family="sans-serif" font-size="14" lengthAdjust="spacing" textLength="180" x="229" y="264.627">composer req symfony/mime</text><text fill="#000000" font-family="sans-serif" font-size="14" lengthAdjust="spacing" textLength="137" x="229" y="282.2363">conposer req security</text><text fill="#000000" font-family="sans-serif" font-size="14" lengthAdjust="spacing" textLength="135" x="229" y="299.8457">composer req profiler</text><text fill="#000000" font-family="sans-serif" font-size="14" lengthAdjust="spacing" textLength="129" x="229" y="317.4551">composer req mailer</text><path d="M509,287.3125 L499,287.3125 C484,287.3125 484,223.6797 469,223.6797 L459,223.6797 " fill="none" style="stroke:#181818;stroke-width:1.0;"/><rect fill="#FFA500" height="90.4375" rx="12.5" ry="12.5" style="stroke:#181818;stroke-width:1.5;" width="175" x="284" y="350.5313"/><text fill="#000000" font-family="sans-serif" font-size="14" lengthAdjust="spacing" textLength="155" x="294" y="375.0645">symfony server:ca:install</text><text fill="#000000" font-family="sans-serif" font-size="14" lengthAdjust="spacing" textLength="145" x="294" y="392.6738">symfony server:start -d</text><text fill="#000000" font-family="sans-serif" font-size="14" lengthAdjust="spacing" textLength="127" x="294" y="410.2832">symfony server:stop</text><text fill="#000000" font-family="sans-serif" font-size="14" lengthAdjust="spacing" textLength="138" x="294" y="427.8926">symfony server:status</text><rect fill="#FFA500" height="55.2188" rx="12.5" ry="12.5" style="stroke:#181818;stroke-width:1.5;" width="203" x="31" y="368.1406"/><text fill="#000000" font-family="sans-serif" font-size="14" lengthAdjust="spacing" textLength="122" x="41" y="392.6738">symfony proxy:start</text><text fill="#000000" font-family="sans-serif" font-size="14" lengthAdjust="spacing" textLength="183" x="41" y="410.2832">symfony proxy:domain.attach</text><path d="M284,395.75 L274,395.75 C259,395.75 259,395.75 244,395.75 L234,395.75 " fill="none" style="stroke:#181818;stroke-width:1.0;"/><path d="M509,287.3125 L499,287.3125 C484,287.3125 484,395.75 469,395.75 L459,395.75 " fill="none" style="stroke:#181818;stroke-width:1.0;"/><rect fill="#00D4FF" height="37.6094" rx="12.5" ry="12.5" style="stroke:#181818;stroke-width:1.5;" width="47" x="412" y="488.9922"/><text fill="#000000" font-family="sans-serif" font-size="14" lengthAdjust="spacing" textLength="27" x="422" y="513.5254">.env</text><text fill="#000000" font-family="sans-serif" font-size="14" lengthAdjust="spacing" textLength="93" x="266" y="466.502">APP_ENV=dev</text><path d="M412,507.7969 L402,507.7969 C387,507.7969 387,460.7734 372,460.7734 L362,460.7734 " fill="none" style="stroke:#181818;stroke-width:1.0;"/><text fill="#000000" font-family="sans-serif" font-size="14" lengthAdjust="spacing" textLength="99" x="260" y="486.1113">APP_SECRET=</text><path d="M412,507.7969 L402,507.7969 C387,507.7969 387,480.3828 372,480.3828 L362,480.3828 " fill="none" style="stroke:#181818;stroke-width:1.0;"/><text fill="#000000" font-family="sans-serif" font-size="14" lengthAdjust="spacing" textLength="305" x="11" y="505.7207">DATABASE_URL="postgresql://user:password@</text><text fill="#000000" font-family="sans-serif" font-size="14" lengthAdjust="spacing" textLength="348" x="11" y="523.3301">127.0.0.1:5433/menu?serverVersion=14&amp;charset=utf8"</text><path d="M412,507.7969 L402,507.7969 C387,507.7969 387,508.7969 372,508.7969 L362,508.7969 " fill="none" style="stroke:#181818;stroke-width:1.0;"/><text fill="#000000" font-family="sans-serif" font-size="14" lengthAdjust="spacing" textLength="242" x="10" y="542.9395">MAILER_DSN=smtp://user:password@</text><text fill="#000000" font-family="sans-serif" font-size="14" lengthAdjust="spacing" textLength="349" x="10" y="560.5488">smtp.mailtrap.io:2525?encryption=tls&amp;auth_mode=login</text><path d="M412,507.7969 L402,507.7969 C387,507.7969 387,546.0156 372,546.0156 L362,546.0156 " fill="none" style="stroke:#181818;stroke-width:1.0;"/><path d="M509,287.3125 L499,287.3125 C484,287.3125 484,507.7969 469,507.7969 L459,507.7969 " fill="none" style="stroke:#181818;stroke-width:1.0;"/><!--MD5=[7e62cf9c4e77ce4d1933a4ac85da28cb]
@startmindmap
<style>
mindmapDiagram {
  .grass {
    BackgroundColor #09d740
  }
  .blau {
    BackgroundColor #00d4ff
  }
  .orange {
    BackgroundColor orange
  }
  .green {
    BackgroundColor lightgreen
  }
  .rose {
    BackgroundColor #f585fa
  }
  .gelb {
    BackgroundColor #fff800
  }
  .bege {
    BackgroundColor #f99c8c
  }

}
</style>
+ menu App<<gelb>>
- -_ 1. mkdir menu 
- - 2. composer create-project symfony/skeleton:"^5.4" menu <<green>> 
- -_ 3. cd menu <<green>>
- - composer req make\ncomposer req twig\ncomposer req doctrine/annotations\ncomposer req doctrine\ncomposer req symfony/console\ncomposer req asset\ncomposer req form\ncomposer req symfony/mime\nconposer req security\ncomposer req profiler\ncomposer req mailer<<rose>>
- - symfony server:ca:install\nsymfony server:start -d\nsymfony server:stop\nsymfony server:status<<orange>>
- - - symfony proxy:start\nsymfony proxy:domain.attach<<orange>>
- - .env<<blau>>
- - -_ APP_ENV=dev
- - -_ APP_SECRET=
- - -_ DATABASE_URL="postgresql://user:password@\n127.0.0.1:5433/menu?serverVersion=14&charset=utf8"
- - -_ MAILER_DSN=smtp://user:password@\nsmtp.mailtrap.io:2525?encryption=tls&auth_mode=login

++ php bin/console doctrine<<bege>>
+++_ :database:create
+++_ :schema:update - -force
+++_ :schema:update - -dump-sql

++ php bin/console make<<bege>>
+++_ :entity [<Name>Entity]
+++_ :entity - -regenerate
+++_ :migration
+++_ :controller [<Name>Controller]
+++_ :form

++ php bin/console debug <<bege>>
+++_ :router

@endmindmap

PlantUML version 1.2022.7(Mon Aug 22 19:01:30 CEST 2022)
(GPL source distribution)
Java Runtime: Java(TM) SE Runtime Environment
JVM: Java HotSpot(TM) 64-Bit Server VM
Default Encoding: Cp1252
Language: de
Country: DE
--></g></svg>