<?xml version="1.0" encoding="UTF-8" standalone="no"?><svg xmlns="http://www.w3.org/2000/svg" xmlns:xlink="http://www.w3.org/1999/xlink" contentStyleType="text/css" height="432px" preserveAspectRatio="none" style="width:816px;height:432px;background:#FFFFFF;" version="1.1" viewBox="0 0 816 432" width="816px" zoomAndPan="magnify"><defs/><g><rect fill="#F1F1F1" height="37.6094" rx="12.5" ry="12.5" style="stroke:#181818;stroke-width:1.5;" width="142" x="488" y="196.4609"/><text fill="#000000" font-family="sans-serif" font-size="14" lengthAdjust="spacing" textLength="122" x="498" y="220.9941">Symfony menu App</text><rect fill="#ADD8E6" height="37.6094" rx="12.5" ry="12.5" style="stroke:#181818;stroke-width:1.5;" width="124" x="680" y="196.4609"/><text fill="#000000" font-family="sans-serif" font-size="14" lengthAdjust="spacing" textLength="100" x="690" y="220.9941">php bin/console</text><path d="M630,215.2656 L640,215.2656 C655,215.2656 655,215.2656 670,215.2656 L680,215.2656 " fill="none" style="stroke:#181818;stroke-width:1.0;"/><text fill="#000000" font-family="sans-serif" font-size="14" lengthAdjust="spacing" textLength="89" x="342" y="25.5332">1. mkdir menu</text><path d="M488,215.2656 L478,215.2656 C463,215.2656 463,19.8047 448,19.8047 L438,19.8047 " fill="none" style="stroke:#181818;stroke-width:1.0;"/><rect fill="#90EE90" height="37.6094" rx="12.5" ry="12.5" style="stroke:#181818;stroke-width:1.5;" width="385" x="53" y="39.6094"/><text fill="#000000" font-family="sans-serif" font-size="14" lengthAdjust="spacing" textLength="361" x="63" y="64.1426">2. composer create-project symfony/skeleton:"^5.4" menu</text><path d="M488,215.2656 L478,215.2656 C463,215.2656 463,58.4141 448,58.4141 L438,58.4141 " fill="none" style="stroke:#181818;stroke-width:1.0;"/><text fill="#000000" font-family="sans-serif" font-size="14" lengthAdjust="spacing" textLength="70" x="361" y="102.752">3. cd menu</text><path d="M488,215.2656 L478,215.2656 C463,215.2656 463,97.0234 448,97.0234 L438,97.0234 " fill="none" style="stroke:#181818;stroke-width:1.0;"/><rect fill="#FFBBCC" height="125.6563" rx="12.5" ry="12.5" style="stroke:#181818;stroke-width:1.5;" width="268" x="170" y="116.8281"/><text fill="#000000" font-family="sans-serif" font-size="14" lengthAdjust="spacing" textLength="125" x="180" y="141.3613">composer req make</text><text fill="#000000" font-family="sans-serif" font-size="14" lengthAdjust="spacing" textLength="115" x="180" y="158.9707">composer req twig</text><text fill="#000000" font-family="sans-serif" font-size="14" lengthAdjust="spacing" textLength="220" x="180" y="176.5801">composer req doctrine/annotations</text><text fill="#000000" font-family="sans-serif" font-size="14" lengthAdjust="spacing" textLength="142" x="180" y="194.1895">composer req doctrine</text><text fill="#000000" font-family="sans-serif" font-size="14" lengthAdjust="spacing" textLength="196" x="180" y="211.7988">composer req symfony/console</text><text fill="#000000" font-family="sans-serif" font-size="14" lengthAdjust="spacing" textLength="248" x="180" y="229.4082">composer req asset\composer req form</text><path d="M488,215.2656 L478,215.2656 C463,215.2656 463,179.6563 448,179.6563 L438,179.6563 " fill="none" style="stroke:#181818;stroke-width:1.0;"/><rect fill="#FFA500" height="90.4375" rx="12.5" ry="12.5" style="stroke:#181818;stroke-width:1.5;" width="175" x="263" y="262.4844"/><text fill="#000000" font-family="sans-serif" font-size="14" lengthAdjust="spacing" textLength="155" x="273" y="287.0176">symfony server:ca:install</text><text fill="#000000" font-family="sans-serif" font-size="14" lengthAdjust="spacing" textLength="145" x="273" y="304.627">symfony server:start -d</text><text fill="#000000" font-family="sans-serif" font-size="14" lengthAdjust="spacing" textLength="127" x="273" y="322.2363">symfony server:stop</text><text fill="#000000" font-family="sans-serif" font-size="14" lengthAdjust="spacing" textLength="138" x="273" y="339.8457">symfony server:status</text><rect fill="#FFA500" height="55.2188" rx="12.5" ry="12.5" style="stroke:#181818;stroke-width:1.5;" width="203" x="10" y="280.0938"/><text fill="#000000" font-family="sans-serif" font-size="14" lengthAdjust="spacing" textLength="122" x="20" y="304.627">symfony proxy:start</text><text fill="#000000" font-family="sans-serif" font-size="14" lengthAdjust="spacing" textLength="183" x="20" y="322.2363">symfony proxy:domain.attach</text><path d="M263,307.7031 L253,307.7031 C238,307.7031 238,307.7031 223,307.7031 L213,307.7031 " fill="none" style="stroke:#181818;stroke-width:1.0;"/><path d="M488,215.2656 L478,215.2656 C463,215.2656 463,307.7031 448,307.7031 L438,307.7031 " fill="none" style="stroke:#181818;stroke-width:1.0;"/><rect fill="#00D4FF" height="37.6094" rx="12.5" ry="12.5" style="stroke:#181818;stroke-width:1.5;" width="47" x="391" y="372.9219"/><text fill="#000000" font-family="sans-serif" font-size="14" lengthAdjust="spacing" textLength="27" x="401" y="397.4551">.env</text><path d="M488,215.2656 L478,215.2656 C463,215.2656 463,391.7266 448,391.7266 L438,391.7266 " fill="none" style="stroke:#181818;stroke-width:1.0;"/><!--MD5=[17ee92fc994d734b387e73285741375d]
@startmindmap
<style>
mindmapDiagram {
  .lila {
    BackgroundColor #e700ff
  }
  .blau {
    BackgroundColor #00d4ff
  }
  .orange {
    BackgroundColor orange
  }
  .green {
    BackgroundColor lightgreen
  }
  .rose {
    BackgroundColor #FFBBCC
  }
  .your_style_name {
    BackgroundColor lightblue
  }
}
</style>
+ Symfony menu App
- -_ 1. mkdir menu 
- - 2. composer create-project symfony/skeleton:"^5.4" menu <<green>> 
- -_ 3. cd menu <<green>>
- - composer req make\ncomposer req twig\ncomposer req doctrine/annotations\ncomposer req doctrine\ncomposer req symfony/console\ncomposer req asset\composer req form<<rose>>
- - symfony server:ca:install\nsymfony server:start -d\nsymfony server:stop\nsymfony server:status<<orange>>
- - - symfony proxy:start\nsymfony proxy:domain.attach<<orange>>
- - .env<<blau>>
++ php bin/console <<your_style_name>>
@endmindmap

PlantUML version 1.2022.7(Mon Aug 22 19:01:30 CEST 2022)
(GPL source distribution)
Java Runtime: Java(TM) SE Runtime Environment
JVM: Java HotSpot(TM) 64-Bit Server VM
Default Encoding: Cp1252
Language: de
Country: DE
--></g></svg>