<?xml version="1.0" encoding="UTF-8" standalone="no"?><svg xmlns="http://www.w3.org/2000/svg" xmlns:xlink="http://www.w3.org/1999/xlink" contentStyleType="text/css" height="294px" preserveAspectRatio="none" style="width:1151px;height:294px;background:#FFFFFF;" version="1.1" viewBox="0 0 1151 294" width="1151px" zoomAndPan="magnify"><defs/><g><!--MD5=[4c4bef07394b5336a340e537076dd0c8]
cluster My Restaurant - menu--><g id="cluster_My Restaurant - menu"><path d="M8.5,6 L162.5,6 A3.75,3.75 0 0 1 165,8.5 L172,29.6094 L1141.5,29.6094 A2.5,2.5 0 0 1 1144,32.1094 L1144,284.5 A2.5,2.5 0 0 1 1141.5,287 L8.5,287 A2.5,2.5 0 0 1 6,284.5 L6,8.5 A2.5,2.5 0 0 1 8.5,6 " fill="none" style="stroke:#000000;stroke-width:1.5;"/><line style="stroke:#000000;stroke-width:1.5;" x1="6" x2="172" y1="29.6094" y2="29.6094"/><text fill="#000000" font-family="sans-serif" font-size="14" font-weight="bold" lengthAdjust="spacing" textLength="153" x="10" y="22.5332">My Restaurant - menu</text></g><!--MD5=[8e8c41c1ce34813b33736b9e139881eb]
cluster professionals--><g id="cluster_professionals"><path d="M565.5,50 L662.5,50 A3.75,3.75 0 0 1 665,52.5 L672,73.6094 L739.5,73.6094 A2.5,2.5 0 0 1 742,76.1094 L742,177.5 A2.5,2.5 0 0 1 739.5,180 L565.5,180 A2.5,2.5 0 0 1 563,177.5 L563,52.5 A2.5,2.5 0 0 1 565.5,50 " fill="none" style="stroke:#000000;stroke-width:1.5;"/><line style="stroke:#000000;stroke-width:1.5;" x1="563" x2="672" y1="73.6094" y2="73.6094"/><text fill="#000000" font-family="sans-serif" font-size="14" font-weight="bold" lengthAdjust="spacing" textLength="96" x="567" y="66.5332">professionals</text></g><!--MD5=[27fbeb839ece46b3aa7371a781596bb6]
cluster employees--><g id="cluster_employees"><path d="M260.5,50 L337.5,50 A3.75,3.75 0 0 1 340,52.5 L347,73.6094 L403.5,73.6094 A2.5,2.5 0 0 1 406,76.1094 L406,177.5 A2.5,2.5 0 0 1 403.5,180 L260.5,180 A2.5,2.5 0 0 1 258,177.5 L258,52.5 A2.5,2.5 0 0 1 260.5,50 " fill="none" style="stroke:#000000;stroke-width:1.5;"/><line style="stroke:#000000;stroke-width:1.5;" x1="258" x2="347" y1="73.6094" y2="73.6094"/><text fill="#000000" font-family="sans-serif" font-size="14" font-weight="bold" lengthAdjust="spacing" textLength="76" x="262" y="66.5332">employees</text></g><!--MD5=[b5e3361e2a5f8dd2cdf2e5f0d87d6906]
cluster customer--><g id="cluster_customer"><path d="M447.5,50 L514.5,50 A3.75,3.75 0 0 1 517,52.5 L524,73.6094 L536.5,73.6094 A2.5,2.5 0 0 1 539,76.1094 L539,177.5 A2.5,2.5 0 0 1 536.5,180 L447.5,180 A2.5,2.5 0 0 1 445,177.5 L445,52.5 A2.5,2.5 0 0 1 447.5,50 " fill="none" style="stroke:#000000;stroke-width:1.5;"/><line style="stroke:#000000;stroke-width:1.5;" x1="445" x2="524" y1="73.6094" y2="73.6094"/><text fill="#000000" font-family="sans-serif" font-size="14" font-weight="bold" lengthAdjust="spacing" textLength="66" x="449" y="66.5332">customer</text></g><g id="elem_UC0"><ellipse cx="916.811" cy="247.4535" fill="#F1F1F1" rx="43.311" ry="15.4535" style="stroke:#181818;stroke-width:0.5;"/><text fill="#000000" font-family="sans-serif" font-size="14" lengthAdjust="spacing" textLength="45" x="893.8228" y="251.3329">Review</text></g><g id="elem_UC1"><ellipse cx="1062.08" cy="247.6227" fill="#F1F1F1" rx="66.08" ry="15.6227" style="stroke:#181818;stroke-width:0.5;"/><text fill="#000000" font-family="sans-serif" font-size="14" lengthAdjust="spacing" textLength="76" x="1021.08" y="252.1393">Mark dishes</text></g><g id="elem_UC2"><ellipse cx="103.9202" cy="247.284" fill="#F1F1F1" rx="81.9202" ry="18.784" style="stroke:#181818;stroke-width:0.5;"/><text fill="#000000" font-family="sans-serif" font-size="14" lengthAdjust="spacing" textLength="119" x="44.2512" y="251.0629">Manages accounts</text></g><g id="elem_UC3"><ellipse cx="743.1904" cy="247.4381" fill="#F1F1F1" rx="95.1904" ry="21.4381" style="stroke:#181818;stroke-width:0.5;"/><text fill="#000000" font-family="sans-serif" font-size="14" lengthAdjust="spacing" textLength="150" x="668.1904" y="251.1666">Write guestbook entries</text></g><g id="elem_UC4"><ellipse cx="506.9418" cy="247.4884" fill="#F1F1F1" rx="105.4418" ry="23.4884" style="stroke:#181818;stroke-width:0.5;"/><text fill="#000000" font-family="sans-serif" font-size="14" lengthAdjust="spacing" textLength="173" x="420.4418" y="251.2169">Sees the guestbook entries</text></g><g id="elem_UC5"><ellipse cx="294.1476" cy="247.4295" fill="#F1F1F1" rx="72.6476" ry="16.9295" style="stroke:#181818;stroke-width:0.5;"/><text fill="#000000" font-family="sans-serif" font-size="14" lengthAdjust="spacing" textLength="95" x="243.6476" y="251.9461">Sees the menu</text></g><!--MD5=[6377be883f12643b62e189b60fe92e84]
entity ch--><g id="elem_ch"><ellipse cx="594" cy="94.5" fill="#F1F1F1" rx="8" ry="8" style="stroke:#181818;stroke-width:0.5;"/><path d="M594,102.5 L594,129.5 M581,110.5 L607,110.5 M594,129.5 L581,144.5 M594,129.5 L607,144.5 " fill="none" style="stroke:#181818;stroke-width:0.5;"/><text fill="#000000" font-family="sans-serif" font-size="14" lengthAdjust="spacing" textLength="30" x="579" y="160.5332">Chef</text></g><!--MD5=[db756db308cf6ff8cfeeb51570136b75]
entity fc--><g id="elem_fc"><ellipse cx="685" cy="94.5" fill="#F1F1F1" rx="8" ry="8" style="stroke:#181818;stroke-width:0.5;"/><path d="M685,102.5 L685,129.5 M672,110.5 L698,110.5 M685,129.5 L672,144.5 M685,129.5 L698,144.5 " fill="none" style="stroke:#181818;stroke-width:0.5;"/><text fill="#000000" font-family="sans-serif" font-size="14" lengthAdjust="spacing" textLength="82" x="644" y="160.5332">Food Criticer</text></g><!--MD5=[f83ae91a690dfc657e1c5fbbd818f13d]
entity a--><g id="elem_a"><ellipse cx="294" cy="94.5" fill="#F1F1F1" rx="8" ry="8" style="stroke:#181818;stroke-width:0.5;"/><path d="M294,102.5 L294,129.5 M281,110.5 L307,110.5 M294,129.5 L281,144.5 M294,129.5 L307,144.5 " fill="none" style="stroke:#181818;stroke-width:0.5;"/><text fill="#000000" font-family="sans-serif" font-size="14" lengthAdjust="spacing" textLength="39" x="274.5" y="160.5332">Admin</text></g><!--MD5=[5b15d04c6eb656314d90c943872e8a65]
entity w--><g id="elem_w"><ellipse cx="369" cy="94.5" fill="#F1F1F1" rx="8" ry="8" style="stroke:#181818;stroke-width:0.5;"/><path d="M369,102.5 L369,129.5 M356,110.5 L382,110.5 M369,129.5 L356,144.5 M369,129.5 L382,144.5 " fill="none" style="stroke:#181818;stroke-width:0.5;"/><text fill="#000000" font-family="sans-serif" font-size="14" lengthAdjust="spacing" textLength="41" x="348.5" y="160.5332">Waiter</text></g><!--MD5=[8e9b2d9d80e066cced8e5d90e9bdea61]
entity c--><g id="elem_c"><ellipse cx="492" cy="94.5" fill="#008000" rx="8" ry="8" style="stroke:#008000;stroke-width:0.5;"/><path d="M492,102.5 L492,129.5 M479,110.5 L505,110.5 M492,129.5 L479,144.5 M492,129.5 L505,144.5 " fill="none" style="stroke:#008000;stroke-width:0.5;"/><text fill="#008000" font-family="sans-serif" font-size="14" lengthAdjust="spacing" textLength="61" x="461.5" y="160.5332">Customer</text></g><!--MD5=[cd103d56b5c9df7f695877b59e942d27]
link c to UC5--><g id="link_c_UC5"><path d="M461.29,149.78 C445.2,161.81 424.95,176.3 406,188 C381.08,203.38 351.69,218.63 329.27,229.7 " fill="none" id="c-to-UC5" style="stroke:#181818;stroke-width:1.0;"/><polygon fill="#181818" points="324.6,232,334.4409,231.6031,329.0835,229.7868,330.8997,224.4295,324.6,232" style="stroke:#181818;stroke-width:1.0;"/></g><!--MD5=[99c893a28e333a5372539c8fe7069209]
link w to UC5--><g id="link_w_UC5"><path d="M348.38,159.84 C342.77,169 336.67,178.89 331,188 C323.04,200.79 314,215.08 306.85,226.34 " fill="none" id="w-to-UC5" style="stroke:#181818;stroke-width:1.0;"/><polygon fill="#181818" points="304.11,230.65,312.3201,225.2099,306.7972,226.4335,305.5736,220.9105,304.11,230.65" style="stroke:#181818;stroke-width:1.0;"/></g><!--MD5=[b648bef203f2d53c9856de98320e8e01]
link ch to UC5--><g id="link_ch_UC5"><path d="M578.83,149.32 C569.01,162.6 555.08,178.44 539,188 C478.22,224.16 452.75,207.42 384,224 C371.7,226.97 358.47,230.23 346.04,233.33 " fill="none" id="ch-to-UC5" style="stroke:#181818;stroke-width:1.0;"/><polygon fill="#181818" points="341.14,234.56,350.8426,236.251,345.9899,233.344,348.8969,228.4912,341.14,234.56" style="stroke:#181818;stroke-width:1.0;"/></g><!--MD5=[6db5176ff125ae436d96dc8994641ca6]
link a to UC5--><g id="link_a_UC5"><path d="M294,164.13 C294,184.2 294,208.07 294,224.94 " fill="none" id="a-to-UC5" style="stroke:#181818;stroke-width:1.0;"/><polygon fill="#181818" points="294,230.37,298,221.37,294,225.37,290,221.37,294,230.37" style="stroke:#181818;stroke-width:1.0;"/></g><!--MD5=[579da7dd7a8d5bb55d216568f69ffe38]
link fc to UC5--><g id="link_fc_UC5"><path d="M656.79,164.25 C648.22,173.39 638.1,182.18 627,188 C530.31,238.7 491.09,202.73 384,224 C371.17,226.55 357.42,229.74 344.63,232.92 " fill="none" id="fc-to-UC5" style="stroke:#181818;stroke-width:1.0;"/><polygon fill="#181818" points="339.59,234.18,349.2973,235.8441,344.4365,232.9505,347.3301,228.0897,339.59,234.18" style="stroke:#181818;stroke-width:1.0;"/></g><!--MD5=[328a1b75033cb6e21905ae7b227d40c1]
link c to UC4--><g id="link_c_UC4"><path d="M496.75,164.13 C498.94,181.72 501.49,202.24 503.5,218.39 " fill="none" id="c-to-UC4" style="stroke:#181818;stroke-width:1.0;"/><polygon fill="#181818" points="504.16,223.69,507.0228,214.2664,503.5451,218.728,499.0836,215.2502,504.16,223.69" style="stroke:#181818;stroke-width:1.0;"/></g><!--MD5=[461e3173cd8d22197cdabb575b0c2dfd]
link w to UC4--><g id="link_w_UC4"><path d="M389.66,144.04 C413.17,164.57 451.71,198.23 478.17,221.33 " fill="none" id="w-to-UC4" style="stroke:#181818;stroke-width:1.0;"/><polygon fill="#181818" points="481.98,224.66,477.8216,215.7321,478.21,221.3756,472.5665,221.764,481.98,224.66" style="stroke:#181818;stroke-width:1.0;"/></g><!--MD5=[671315809142cbf8f95afb4988884e94]
link fc to UC4--><g id="link_fc_UC4"><path d="M653.59,164.01 C645.48,172.53 636.37,181.08 627,188 C607.33,202.53 583.49,215.02 562.25,224.68 " fill="none" id="fc-to-UC4" style="stroke:#181818;stroke-width:1.0;"/><polygon fill="#181818" points="557.48,226.83,567.3288,226.7985,562.0425,224.7847,564.0564,219.4985,557.48,226.83" style="stroke:#181818;stroke-width:1.0;"/></g><!--MD5=[ced53a2e1ee50106e9ee477c87b6a0fe]
link a to UC4--><g id="link_a_UC4"><path d="M310.94,164.07 C316.31,172.89 322.99,181.56 331,188 C356.73,208.67 390.08,222.17 420.82,230.92 " fill="none" id="a-to-UC4" style="stroke:#181818;stroke-width:1.0;"/><polygon fill="#181818" points="425.73,232.29,418.1308,226.0248,420.9128,230.9503,415.9873,233.7323,425.73,232.29" style="stroke:#181818;stroke-width:1.0;"/></g><!--MD5=[899c6a638e1b8f6851da156ca7a9dbf2]
link ch to UC4--><g id="link_ch_UC4"><path d="M578.85,146.99 C564.24,167.22 542.08,197.91 526.24,219.85 " fill="none" id="ch-to-UC4" style="stroke:#181818;stroke-width:1.0;"/><polygon fill="#181818" points="523.16,224.12,531.6709,219.1637,526.0864,220.0659,525.1842,214.4814,523.16,224.12" style="stroke:#181818;stroke-width:1.0;"/></g><!--MD5=[d0799cae5d9a295fb7796d4df448133f]
link c to UC3--><g id="link_c_UC3"><path d="M522.76,157.69 C534.54,168.47 548.62,179.84 563,188 C596.78,207.16 637.73,221.1 672.04,230.55 " fill="none" id="c-to-UC3" style="stroke:#181818;stroke-width:1.0;"/><polygon fill="#181818" points="677.05,231.92,669.3994,225.7178,672.2219,230.6201,667.3196,233.4427,677.05,231.92" style="stroke:#181818;stroke-width:1.0;"/></g><!--MD5=[71fba4d683dd6a260b46bc412e62a629]
link fc to UC3--><g id="link_fc_UC3"><path d="M703.35,164.13 C712.33,182.78 722.89,204.72 730.86,221.27 " fill="none" id="fc-to-UC3" style="stroke:#181818;stroke-width:1.0;"/><polygon fill="#181818" points="733.03,225.79,732.7334,215.9456,730.8626,221.2842,725.5241,219.4134,733.03,225.79" style="stroke:#181818;stroke-width:1.0;"/></g><!--MD5=[46a88b67fe0fb697a9d600a230bce57d]
link a to UC2--><g id="link_a_UC2"><path d="M274.38,138.44 C241.49,159.3 174.96,201.5 135.46,226.55 " fill="none" id="a-to-UC2" style="stroke:#181818;stroke-width:1.0;"/><polygon fill="#181818" points="130.79,229.51,140.5295,228.0464,135.0065,226.8228,136.2301,221.2999,130.79,229.51" style="stroke:#181818;stroke-width:1.0;"/></g><!--MD5=[e9923d9fd4075a960db40f09654be8d8]
link fc to UC1--><g id="link_fc_UC1"><path d="M726.06,139.12 C798.19,162.18 946.87,209.7 1019.8,233.01 " fill="none" id="fc-to-UC1" style="stroke:#181818;stroke-width:1.0;"/><polygon fill="#181818" points="1024.91,234.65,1017.5473,228.1086,1020.1456,233.1334,1015.1207,235.7317,1024.91,234.65" style="stroke:#181818;stroke-width:1.0;"/></g><!--MD5=[04c55412723db1567d879286acf678e9]
link fc to UC0--><g id="link_fc_UC0"><path d="M726.21,147.4 C773.01,171.71 848.11,210.72 888.73,231.81 " fill="none" id="fc-to-UC0" style="stroke:#181818;stroke-width:1.0;"/><polygon fill="#181818" points="893.5,234.3,887.3565,226.6021,889.0627,231.9955,883.6693,233.7017,893.5,234.3" style="stroke:#181818;stroke-width:1.0;"/></g><!--MD5=[96b4c3c58bed6f89e9ebe2d109e3c7ab]
@startuml

' !theme _none_
' !theme plain

package "My Restaurant - menu" {
    package professionals {
        actor Chef as ch
        actor "Food Criticer" as fc
    }
    package employees {
        actor Admin as a
        actor Waiter as w
    }
    package customer {
        actor Customer as c #green;line:green;text:green 
    }

    usecase "Review" as UC0
    usecase "Mark dishes" as UC1
    usecase "Manages accounts" as UC2
    usecase "Write guestbook entries" as UC3
    usecase "Sees the guestbook entries" as UC4

    usecase "Sees the menu" as UC5


}


c - -> UC5
w - -> UC5
ch - -> UC5
a - -> UC5
fc - -> UC5

c - -> UC4
w - -> UC4
fc - -> UC4
a - -> UC4
ch - -> UC4

c - -> UC3
fc - -> UC3

a - -> UC2

fc - -> UC1

fc - -> UC0
@enduml

@startuml


package "My Restaurant - menu" {
    package professionals {
        actor Chef as ch
        actor "Food Criticer" as fc
    }
    package employees {
        actor Admin as a
        actor Waiter as w
    }
    package customer {
        actor Customer as c #green;line:green;text:green 
    }

    usecase "Review" as UC0
    usecase "Mark dishes" as UC1
    usecase "Manages accounts" as UC2
    usecase "Write guestbook entries" as UC3
    usecase "Sees the guestbook entries" as UC4

    usecase "Sees the menu" as UC5


}


c - -> UC5
w - -> UC5
ch - -> UC5
a - -> UC5
fc - -> UC5

c - -> UC4
w - -> UC4
fc - -> UC4
a - -> UC4
ch - -> UC4

c - -> UC3
fc - -> UC3

a - -> UC2

fc - -> UC1

fc - -> UC0
@enduml

PlantUML version 1.2022.7(Mon Aug 22 19:01:30 CEST 2022)
(GPL source distribution)
Java Runtime: Java(TM) SE Runtime Environment
JVM: Java HotSpot(TM) 64-Bit Server VM
Default Encoding: Cp1252
Language: de
Country: DE
--></g></svg>