<?xml version="1.0" encoding="UTF-8" standalone="no"?><svg xmlns="http://www.w3.org/2000/svg" xmlns:xlink="http://www.w3.org/1999/xlink" contentStyleType="text/css" height="294px" preserveAspectRatio="none" style="width:1150px;height:294px;background:#FFFFFF;" version="1.1" viewBox="0 0 1150 294" width="1150px" zoomAndPan="magnify"><defs/><g><!--MD5=[2b721f433180eef93c3f34c3fd72b39d]
cluster My Restaurant--><g id="cluster_My Restaurant"><path d="M8.5,6 L110.5,6 A3.75,3.75 0 0 1 113,8.5 L120,29.6094 L1140.5,29.6094 A2.5,2.5 0 0 1 1143,32.1094 L1143,284.5 A2.5,2.5 0 0 1 1140.5,287 L8.5,287 A2.5,2.5 0 0 1 6,284.5 L6,8.5 A2.5,2.5 0 0 1 8.5,6 " fill="none" style="stroke:#000000;stroke-width:1.5;"/><line style="stroke:#000000;stroke-width:1.5;" x1="6" x2="120" y1="29.6094" y2="29.6094"/><text fill="#000000" font-family="sans-serif" font-size="14" font-weight="bold" lengthAdjust="spacing" textLength="101" x="10" y="22.5332">My Restaurant</text></g><!--MD5=[8e8c41c1ce34813b33736b9e139881eb]
cluster professionals--><g id="cluster_professionals"><path d="M433.5,50 L530.5,50 A3.75,3.75 0 0 1 533,52.5 L540,73.6094 L682.5,73.6094 A2.5,2.5 0 0 1 685,76.1094 L685,177.5 A2.5,2.5 0 0 1 682.5,180 L433.5,180 A2.5,2.5 0 0 1 431,177.5 L431,52.5 A2.5,2.5 0 0 1 433.5,50 " fill="none" style="stroke:#000000;stroke-width:1.5;"/><line style="stroke:#000000;stroke-width:1.5;" x1="431" x2="540" y1="73.6094" y2="73.6094"/><text fill="#000000" font-family="sans-serif" font-size="14" font-weight="bold" lengthAdjust="spacing" textLength="96" x="435" y="66.5332">professionals</text></g><!--MD5=[27fbeb839ece46b3aa7371a781596bb6]
cluster employees--><g id="cluster_employees"><path d="M317.5,50 L394.5,50 A3.75,3.75 0 0 1 397,52.5 L404,73.6094 L404.5,73.6094 A2.5,2.5 0 0 1 407,76.1094 L407,177.5 A2.5,2.5 0 0 1 404.5,180 L317.5,180 A2.5,2.5 0 0 1 315,177.5 L315,52.5 A2.5,2.5 0 0 1 317.5,50 " fill="none" style="stroke:#000000;stroke-width:1.5;"/><line style="stroke:#000000;stroke-width:1.5;" x1="315" x2="404" y1="73.6094" y2="73.6094"/><text fill="#000000" font-family="sans-serif" font-size="14" font-weight="bold" lengthAdjust="spacing" textLength="76" x="319" y="66.5332">employees</text></g><!--MD5=[b5e3361e2a5f8dd2cdf2e5f0d87d6906]
cluster customer--><g id="cluster_customer"><path d="M199.5,50 L266.5,50 A3.75,3.75 0 0 1 269,52.5 L276,73.6094 L288.5,73.6094 A2.5,2.5 0 0 1 291,76.1094 L291,177.5 A2.5,2.5 0 0 1 288.5,180 L199.5,180 A2.5,2.5 0 0 1 197,177.5 L197,52.5 A2.5,2.5 0 0 1 199.5,50 " fill="none" style="stroke:#000000;stroke-width:1.5;"/><line style="stroke:#000000;stroke-width:1.5;" x1="197" x2="276" y1="73.6094" y2="73.6094"/><text fill="#000000" font-family="sans-serif" font-size="14" font-weight="bold" lengthAdjust="spacing" textLength="66" x="201" y="66.5332">customer</text></g><g id="elem_UC0"><ellipse cx="915.811" cy="247.4535" fill="#F1F1F1" rx="43.311" ry="15.4535" style="stroke:#181818;stroke-width:0.5;"/><text fill="#000000" font-family="sans-serif" font-size="14" lengthAdjust="spacing" textLength="45" x="892.8228" y="251.3329">Review</text></g><g id="elem_UC1"><ellipse cx="1061.08" cy="247.6227" fill="#F1F1F1" rx="66.08" ry="15.6227" style="stroke:#181818;stroke-width:0.5;"/><text fill="#000000" font-family="sans-serif" font-size="14" lengthAdjust="spacing" textLength="76" x="1020.08" y="252.1393">Mark dishes</text></g><g id="elem_UC2"><ellipse cx="754.9202" cy="247.284" fill="#F1F1F1" rx="81.9202" ry="18.784" style="stroke:#181818;stroke-width:0.5;"/><text fill="#000000" font-family="sans-serif" font-size="14" lengthAdjust="spacing" textLength="119" x="695.2512" y="251.0629">Manages accounts</text></g><g id="elem_UC3"><ellipse cx="117.1904" cy="247.4381" fill="#F1F1F1" rx="95.1904" ry="21.4381" style="stroke:#181818;stroke-width:0.5;"/><text fill="#000000" font-family="sans-serif" font-size="14" lengthAdjust="spacing" textLength="150" x="42.1904" y="251.1666">Write guestbook entries</text></g><g id="elem_UC4"><ellipse cx="531.9418" cy="247.4884" fill="#F1F1F1" rx="105.4418" ry="23.4884" style="stroke:#181818;stroke-width:0.5;"/><text fill="#000000" font-family="sans-serif" font-size="14" lengthAdjust="spacing" textLength="173" x="445.4418" y="251.2169">Sees the guestbook entries</text></g><g id="elem_UC5"><ellipse cx="318.9259" cy="247.2852" fill="#F1F1F1" rx="71.9259" ry="16.7852" style="stroke:#181818;stroke-width:0.5;"/><text fill="#000000" font-family="sans-serif" font-size="14" lengthAdjust="spacing" textLength="93" x="269.4259" y="251.8018">sees the menu</text></g><!--MD5=[6377be883f12643b62e189b60fe92e84]
entity ch--><g id="elem_ch"><ellipse cx="462" cy="94.5" fill="#F1F1F1" rx="8" ry="8" style="stroke:#181818;stroke-width:0.5;"/><path d="M462,102.5 L462,129.5 M449,110.5 L475,110.5 M462,129.5 L449,144.5 M462,129.5 L475,144.5 " fill="none" style="stroke:#181818;stroke-width:0.5;"/><text fill="#000000" font-family="sans-serif" font-size="14" lengthAdjust="spacing" textLength="30" x="447" y="160.5332">Chef</text></g><!--MD5=[f83ae91a690dfc657e1c5fbbd818f13d]
entity a--><g id="elem_a"><ellipse cx="532" cy="94.5" fill="#F1F1F1" rx="8" ry="8" style="stroke:#181818;stroke-width:0.5;"/><path d="M532,102.5 L532,129.5 M519,110.5 L545,110.5 M532,129.5 L519,144.5 M532,129.5 L545,144.5 " fill="none" style="stroke:#181818;stroke-width:0.5;"/><text fill="#000000" font-family="sans-serif" font-size="14" lengthAdjust="spacing" textLength="39" x="512.5" y="160.5332">Admin</text></g><!--MD5=[db756db308cf6ff8cfeeb51570136b75]
entity fc--><g id="elem_fc"><ellipse cx="628" cy="94.5" fill="#F1F1F1" rx="8" ry="8" style="stroke:#181818;stroke-width:0.5;"/><path d="M628,102.5 L628,129.5 M615,110.5 L641,110.5 M628,129.5 L615,144.5 M628,129.5 L641,144.5 " fill="none" style="stroke:#181818;stroke-width:0.5;"/><text fill="#000000" font-family="sans-serif" font-size="14" lengthAdjust="spacing" textLength="82" x="587" y="160.5332">Food Criticer</text></g><!--MD5=[5b15d04c6eb656314d90c943872e8a65]
entity w--><g id="elem_w"><ellipse cx="361" cy="94.5" fill="#F1F1F1" rx="8" ry="8" style="stroke:#181818;stroke-width:0.5;"/><path d="M361,102.5 L361,129.5 M348,110.5 L374,110.5 M361,129.5 L348,144.5 M361,129.5 L374,144.5 " fill="none" style="stroke:#181818;stroke-width:0.5;"/><text fill="#000000" font-family="sans-serif" font-size="14" lengthAdjust="spacing" textLength="41" x="340.5" y="160.5332">Waiter</text></g><!--MD5=[8e9b2d9d80e066cced8e5d90e9bdea61]
entity c--><g id="elem_c"><ellipse cx="244" cy="94.5" fill="#008000" rx="8" ry="8" style="stroke:#008000;stroke-width:0.5;"/><path d="M244,102.5 L244,129.5 M231,110.5 L257,110.5 M244,129.5 L231,144.5 M244,129.5 L257,144.5 " fill="none" style="stroke:#008000;stroke-width:0.5;"/><text fill="#008000" font-family="sans-serif" font-size="14" lengthAdjust="spacing" textLength="61" x="213.5" y="160.5332">Customer</text></g><!--MD5=[cd103d56b5c9df7f695877b59e942d27]
link c to UC5--><g id="link_c_UC5"><path d="M267.73,164.13 C280.44,184.55 295.6,208.9 306.12,225.81 " fill="none" id="c-to-UC5" style="stroke:#181818;stroke-width:1.0;"/><polygon fill="#181818" points="308.96,230.37,307.5968,220.6159,306.3164,226.126,300.8064,224.8457,308.96,230.37" style="stroke:#181818;stroke-width:1.0;"/></g><!--MD5=[99c893a28e333a5372539c8fe7069209]
link w to UC5--><g id="link_w_UC5"><path d="M347.71,164.13 C340.65,184.37 332.25,208.49 326.36,225.38 " fill="none" id="w-to-UC5" style="stroke:#181818;stroke-width:1.0;"/><polygon fill="#181818" points="324.62,230.37,331.3521,223.1812,326.2609,225.6469,323.7952,220.5557,324.62,230.37" style="stroke:#181818;stroke-width:1.0;"/></g><!--MD5=[b648bef203f2d53c9856de98320e8e01]
link ch to UC5--><g id="link_ch_UC5"><path d="M446.76,141.89 C434.12,154.78 415.46,173.19 398,188 C381.23,202.23 361.32,216.96 345.68,228.08 " fill="none" id="ch-to-UC5" style="stroke:#181818;stroke-width:1.0;"/><polygon fill="#181818" points="341.39,231.11,351.0412,229.1466,345.4625,228.2092,346.3999,222.6306,341.39,231.11" style="stroke:#181818;stroke-width:1.0;"/></g><!--MD5=[6db5176ff125ae436d96dc8994641ca6]
link a to UC5--><g id="link_a_UC5"><path d="M515.06,164.07 C509.69,172.89 503.01,181.56 495,188 C475.72,203.49 416.23,221.45 371.72,233.34 " fill="none" id="a-to-UC5" style="stroke:#181818;stroke-width:1.0;"/><polygon fill="#181818" points="366.64,234.69,376.3662,236.2396,371.4716,233.4035,374.3077,228.5089,366.64,234.69" style="stroke:#181818;stroke-width:1.0;"/></g><!--MD5=[579da7dd7a8d5bb55d216568f69ffe38]
link fc to UC5--><g id="link_fc_UC5"><path d="M598.59,164.02 C589.94,173.05 579.86,181.84 569,188 C505.59,223.95 479.92,207.16 409,224 C396.69,226.92 383.46,230.17 371.03,233.27 " fill="none" id="fc-to-UC5" style="stroke:#181818;stroke-width:1.0;"/><polygon fill="#181818" points="366.13,234.5,375.8326,236.191,370.9799,233.284,373.8869,228.4312,366.13,234.5" style="stroke:#181818;stroke-width:1.0;"/></g><!--MD5=[328a1b75033cb6e21905ae7b227d40c1]
link c to UC4--><g id="link_c_UC4"><path d="M274.78,154.38 C288.92,166.17 306.42,179.14 324,188 C362.63,207.47 408.67,221.27 447.6,230.55 " fill="none" id="c-to-UC4" style="stroke:#181818;stroke-width:1.0;"/><polygon fill="#181818" points="452.8,231.78,444.9554,225.825,447.9329,230.6348,443.1231,233.6123,452.8,231.78" style="stroke:#181818;stroke-width:1.0;"/></g><!--MD5=[461e3173cd8d22197cdabb575b0c2dfd]
link w to UC4--><g id="link_w_UC4"><path d="M381.52,146.15 C395.01,158.88 413.36,175.27 431,188 C448.57,200.68 469.09,212.97 487.02,222.99 " fill="none" id="w-to-UC4" style="stroke:#181818;stroke-width:1.0;"/><polygon fill="#181818" points="491.52,225.49,485.5952,217.6226,487.1492,223.0618,481.71,224.6158,491.52,225.49" style="stroke:#181818;stroke-width:1.0;"/></g><!--MD5=[671315809142cbf8f95afb4988884e94]
link fc to UC4--><g id="link_fc_UC4"><path d="M597.62,164.13 C583.14,182.31 566.17,203.61 553.12,219.99 " fill="none" id="fc-to-UC4" style="stroke:#181818;stroke-width:1.0;"/><polygon fill="#181818" points="549.89,224.05,558.6236,219.4976,553.003,220.1373,552.3633,214.5167,549.89,224.05" style="stroke:#181818;stroke-width:1.0;"/></g><!--MD5=[ced53a2e1ee50106e9ee477c87b6a0fe]
link a to UC4--><g id="link_a_UC4"><path d="M532,164.13 C532,181.72 532,202.24 532,218.39 " fill="none" id="a-to-UC4" style="stroke:#181818;stroke-width:1.0;"/><polygon fill="#181818" points="532,223.69,536,214.69,532,218.69,528,214.69,532,223.69" style="stroke:#181818;stroke-width:1.0;"/></g><!--MD5=[899c6a638e1b8f6851da156ca7a9dbf2]
link ch to UC4--><g id="link_ch_UC4"><path d="M477,155.27 C482.5,165.69 488.87,177.46 495,188 C501.08,198.45 508.09,209.72 514.37,219.55 " fill="none" id="ch-to-UC4" style="stroke:#181818;stroke-width:1.0;"/><polygon fill="#181818" points="517.19,223.96,515.7029,214.2241,514.4927,219.7499,508.9668,218.5397,517.19,223.96" style="stroke:#181818;stroke-width:1.0;"/></g><!--MD5=[d0799cae5d9a295fb7796d4df448133f]
link c to UC3--><g id="link_c_UC3"><path d="M213.26,155.17 C191.42,175.89 162.46,203.36 142.03,222.75 " fill="none" id="c-to-UC3" style="stroke:#181818;stroke-width:1.0;"/><polygon fill="#181818" points="138.32,226.27,147.602,222.977,141.9471,222.8285,142.0956,217.1736,138.32,226.27" style="stroke:#181818;stroke-width:1.0;"/></g><!--MD5=[71fba4d683dd6a260b46bc412e62a629]
link fc to UC3--><g id="link_fc_UC3"><path d="M599.67,164.24 C590.88,173.5 580.46,182.35 569,188 C432.69,255.17 379.21,201.01 229,224 C215.82,226.02 201.83,228.53 188.38,231.13 " fill="none" id="fc-to-UC3" style="stroke:#181818;stroke-width:1.0;"/><polygon fill="#181818" points="183.45,232.1,193.0499,234.3004,188.3573,231.1414,191.5162,226.4488,183.45,232.1" style="stroke:#181818;stroke-width:1.0;"/></g><!--MD5=[46a88b67fe0fb697a9d600a230bce57d]
link a to UC2--><g id="link_a_UC2"><path d="M549.5,164.15 C555.02,172.97 561.84,181.62 570,188 C589.59,203.31 648.1,220.42 694.13,232.16 " fill="none" id="a-to-UC2" style="stroke:#181818;stroke-width:1.0;"/><polygon fill="#181818" points="699.11,233.42,691.3657,227.3352,694.2627,232.1939,689.4039,235.0909,699.11,233.42" style="stroke:#181818;stroke-width:1.0;"/></g><!--MD5=[e9923d9fd4075a960db40f09654be8d8]
link fc to UC1--><g id="link_fc_UC1"><path d="M669.13,137.44 C750.37,160.05 930.87,210.29 1015.52,233.84 " fill="none" id="fc-to-UC1" style="stroke:#181818;stroke-width:1.0;"/><polygon fill="#181818" points="1020.46,235.22,1012.8656,228.949,1015.6438,233.8766,1010.7162,236.6548,1020.46,235.22" style="stroke:#181818;stroke-width:1.0;"/></g><!--MD5=[04c55412723db1567d879286acf678e9]
link fc to UC0--><g id="link_fc_UC0"><path d="M669.26,143.26 C727.27,167.54 831.7,211.23 884.13,233.17 " fill="none" id="fc-to-UC0" style="stroke:#181818;stroke-width:1.0;"/><polygon fill="#181818" points="889.04,235.22,882.2865,228.0513,884.4289,233.2868,879.1934,235.4291,889.04,235.22" style="stroke:#181818;stroke-width:1.0;"/></g><!--MD5=[c113fb2589bc0a8f7a947f1158168461]
@startuml

' !theme _none_
' !theme plain

package "My Restaurant" {
    package professionals {
        actor Chef as ch
        actor Admin as a
        actor "Food Criticer" as fc
    }
    package employees {
        
        actor Waiter as w
    }
    package customer {
        actor Customer as c #green;line:green;text:green 
    }

    usecase "Review" as UC0
    usecase "Mark dishes" as UC1
    usecase "Manages accounts" as UC2
    usecase "Write guestbook entries" as UC3
    usecase "Sees the guestbook entries" as UC4

    usecase "sees the menu" as UC5


}


c - -> UC5
w - -> UC5
ch - -> UC5
a - -> UC5
fc - -> UC5

c - -> UC4
w - -> UC4
fc - -> UC4
a - -> UC4
ch - -> UC4

c - -> UC3
fc - -> UC3

a - -> UC2

fc - -> UC1

fc - -> UC0
@enduml

@startuml


package "My Restaurant" {
    package professionals {
        actor Chef as ch
        actor Admin as a
        actor "Food Criticer" as fc
    }
    package employees {
        
        actor Waiter as w
    }
    package customer {
        actor Customer as c #green;line:green;text:green 
    }

    usecase "Review" as UC0
    usecase "Mark dishes" as UC1
    usecase "Manages accounts" as UC2
    usecase "Write guestbook entries" as UC3
    usecase "Sees the guestbook entries" as UC4

    usecase "sees the menu" as UC5


}


c - -> UC5
w - -> UC5
ch - -> UC5
a - -> UC5
fc - -> UC5

c - -> UC4
w - -> UC4
fc - -> UC4
a - -> UC4
ch - -> UC4

c - -> UC3
fc - -> UC3

a - -> UC2

fc - -> UC1

fc - -> UC0
@enduml

PlantUML version 1.2022.7(Mon Aug 22 19:01:30 CEST 2022)
(GPL source distribution)
Java Runtime: Java(TM) SE Runtime Environment
JVM: Java HotSpot(TM) 64-Bit Server VM
Default Encoding: Cp1252
Language: de
Country: DE
--></g></svg>