<?xml version="1.0" encoding="UTF-8" standalone="no"?><svg xmlns="http://www.w3.org/2000/svg" xmlns:xlink="http://www.w3.org/1999/xlink" contentStyleType="text/css" height="294px" preserveAspectRatio="none" style="width:1150px;height:294px;background:#FFFFFF;" version="1.1" viewBox="0 0 1150 294" width="1150px" zoomAndPan="magnify"><defs/><g><!--MD5=[4c4bef07394b5336a340e537076dd0c8]
cluster My Restaurant - menu--><g id="cluster_My Restaurant - menu"><path d="M8.5,6 L162.5,6 A3.75,3.75 0 0 1 165,8.5 L172,29.6094 L1140.5,29.6094 A2.5,2.5 0 0 1 1143,32.1094 L1143,284.5 A2.5,2.5 0 0 1 1140.5,287 L8.5,287 A2.5,2.5 0 0 1 6,284.5 L6,8.5 A2.5,2.5 0 0 1 8.5,6 " fill="none" style="stroke:#000000;stroke-width:1.5;"/><line style="stroke:#000000;stroke-width:1.5;" x1="6" x2="172" y1="29.6094" y2="29.6094"/><text fill="#000000" font-family="sans-serif" font-size="14" font-weight="bold" lengthAdjust="spacing" textLength="153" x="10" y="22.5332">My Restaurant - menu</text></g><!--MD5=[8e8c41c1ce34813b33736b9e139881eb]
cluster professionals--><g id="cluster_professionals"><path d="M564.5,50 L661.5,50 A3.75,3.75 0 0 1 664,52.5 L671,73.6094 L738.5,73.6094 A2.5,2.5 0 0 1 741,76.1094 L741,177.5 A2.5,2.5 0 0 1 738.5,180 L564.5,180 A2.5,2.5 0 0 1 562,177.5 L562,52.5 A2.5,2.5 0 0 1 564.5,50 " fill="none" style="stroke:#000000;stroke-width:1.5;"/><line style="stroke:#000000;stroke-width:1.5;" x1="562" x2="671" y1="73.6094" y2="73.6094"/><text fill="#000000" font-family="sans-serif" font-size="14" font-weight="bold" lengthAdjust="spacing" textLength="96" x="566" y="66.5332">professionals</text></g><!--MD5=[27fbeb839ece46b3aa7371a781596bb6]
cluster employees--><g id="cluster_employees"><path d="M259.5,50 L336.5,50 A3.75,3.75 0 0 1 339,52.5 L346,73.6094 L402.5,73.6094 A2.5,2.5 0 0 1 405,76.1094 L405,177.5 A2.5,2.5 0 0 1 402.5,180 L259.5,180 A2.5,2.5 0 0 1 257,177.5 L257,52.5 A2.5,2.5 0 0 1 259.5,50 " fill="none" style="stroke:#000000;stroke-width:1.5;"/><line style="stroke:#000000;stroke-width:1.5;" x1="257" x2="346" y1="73.6094" y2="73.6094"/><text fill="#000000" font-family="sans-serif" font-size="14" font-weight="bold" lengthAdjust="spacing" textLength="76" x="261" y="66.5332">employees</text></g><!--MD5=[b5e3361e2a5f8dd2cdf2e5f0d87d6906]
cluster customer--><g id="cluster_customer"><path d="M446.5,50 L513.5,50 A3.75,3.75 0 0 1 516,52.5 L523,73.6094 L535.5,73.6094 A2.5,2.5 0 0 1 538,76.1094 L538,177.5 A2.5,2.5 0 0 1 535.5,180 L446.5,180 A2.5,2.5 0 0 1 444,177.5 L444,52.5 A2.5,2.5 0 0 1 446.5,50 " fill="none" style="stroke:#000000;stroke-width:1.5;"/><line style="stroke:#000000;stroke-width:1.5;" x1="444" x2="523" y1="73.6094" y2="73.6094"/><text fill="#000000" font-family="sans-serif" font-size="14" font-weight="bold" lengthAdjust="spacing" textLength="66" x="448" y="66.5332">customer</text></g><g id="elem_UC0"><ellipse cx="915.811" cy="247.4535" fill="#F1F1F1" rx="43.311" ry="15.4535" style="stroke:#181818;stroke-width:0.5;"/><text fill="#000000" font-family="sans-serif" font-size="14" lengthAdjust="spacing" textLength="45" x="892.8228" y="251.3329">Review</text></g><g id="elem_UC1"><ellipse cx="1061.08" cy="247.6227" fill="#F1F1F1" rx="66.08" ry="15.6227" style="stroke:#181818;stroke-width:0.5;"/><text fill="#000000" font-family="sans-serif" font-size="14" lengthAdjust="spacing" textLength="76" x="1020.08" y="252.1393">Mark dishes</text></g><g id="elem_UC2"><ellipse cx="103.9202" cy="247.284" fill="#F1F1F1" rx="81.9202" ry="18.784" style="stroke:#181818;stroke-width:0.5;"/><text fill="#000000" font-family="sans-serif" font-size="14" lengthAdjust="spacing" textLength="119" x="44.2512" y="251.0629">Manages accounts</text></g><g id="elem_UC3"><ellipse cx="742.1904" cy="247.4381" fill="#F1F1F1" rx="95.1904" ry="21.4381" style="stroke:#181818;stroke-width:0.5;"/><text fill="#000000" font-family="sans-serif" font-size="14" lengthAdjust="spacing" textLength="150" x="667.1904" y="251.1666">Write guestbook entries</text></g><g id="elem_UC4"><ellipse cx="505.9418" cy="247.4884" fill="#F1F1F1" rx="105.4418" ry="23.4884" style="stroke:#181818;stroke-width:0.5;"/><text fill="#000000" font-family="sans-serif" font-size="14" lengthAdjust="spacing" textLength="173" x="419.4418" y="251.2169">Sees the guestbook entries</text></g><g id="elem_UC5"><ellipse cx="292.9259" cy="247.2852" fill="#F1F1F1" rx="71.9259" ry="16.7852" style="stroke:#181818;stroke-width:0.5;"/><text fill="#000000" font-family="sans-serif" font-size="14" lengthAdjust="spacing" textLength="93" x="243.4259" y="251.8018">sees the menu</text></g><!--MD5=[6377be883f12643b62e189b60fe92e84]
entity ch--><g id="elem_ch"><ellipse cx="593" cy="94.5" fill="#F1F1F1" rx="8" ry="8" style="stroke:#181818;stroke-width:0.5;"/><path d="M593,102.5 L593,129.5 M580,110.5 L606,110.5 M593,129.5 L580,144.5 M593,129.5 L606,144.5 " fill="none" style="stroke:#181818;stroke-width:0.5;"/><text fill="#000000" font-family="sans-serif" font-size="14" lengthAdjust="spacing" textLength="30" x="578" y="160.5332">Chef</text></g><!--MD5=[db756db308cf6ff8cfeeb51570136b75]
entity fc--><g id="elem_fc"><ellipse cx="684" cy="94.5" fill="#F1F1F1" rx="8" ry="8" style="stroke:#181818;stroke-width:0.5;"/><path d="M684,102.5 L684,129.5 M671,110.5 L697,110.5 M684,129.5 L671,144.5 M684,129.5 L697,144.5 " fill="none" style="stroke:#181818;stroke-width:0.5;"/><text fill="#000000" font-family="sans-serif" font-size="14" lengthAdjust="spacing" textLength="82" x="643" y="160.5332">Food Criticer</text></g><!--MD5=[f83ae91a690dfc657e1c5fbbd818f13d]
entity a--><g id="elem_a"><ellipse cx="293" cy="94.5" fill="#F1F1F1" rx="8" ry="8" style="stroke:#181818;stroke-width:0.5;"/><path d="M293,102.5 L293,129.5 M280,110.5 L306,110.5 M293,129.5 L280,144.5 M293,129.5 L306,144.5 " fill="none" style="stroke:#181818;stroke-width:0.5;"/><text fill="#000000" font-family="sans-serif" font-size="14" lengthAdjust="spacing" textLength="39" x="273.5" y="160.5332">Admin</text></g><!--MD5=[5b15d04c6eb656314d90c943872e8a65]
entity w--><g id="elem_w"><ellipse cx="368" cy="94.5" fill="#F1F1F1" rx="8" ry="8" style="stroke:#181818;stroke-width:0.5;"/><path d="M368,102.5 L368,129.5 M355,110.5 L381,110.5 M368,129.5 L355,144.5 M368,129.5 L381,144.5 " fill="none" style="stroke:#181818;stroke-width:0.5;"/><text fill="#000000" font-family="sans-serif" font-size="14" lengthAdjust="spacing" textLength="41" x="347.5" y="160.5332">Waiter</text></g><!--MD5=[8e9b2d9d80e066cced8e5d90e9bdea61]
entity c--><g id="elem_c"><ellipse cx="491" cy="94.5" fill="#008000" rx="8" ry="8" style="stroke:#008000;stroke-width:0.5;"/><path d="M491,102.5 L491,129.5 M478,110.5 L504,110.5 M491,129.5 L478,144.5 M491,129.5 L504,144.5 " fill="none" style="stroke:#008000;stroke-width:0.5;"/><text fill="#008000" font-family="sans-serif" font-size="14" lengthAdjust="spacing" textLength="61" x="460.5" y="160.5332">Customer</text></g><!--MD5=[cd103d56b5c9df7f695877b59e942d27]
link c to UC5--><g id="link_c_UC5"><path d="M460.29,149.78 C444.2,161.81 423.95,176.3 405,188 C380.08,203.38 350.69,218.63 328.27,229.7 " fill="none" id="c-to-UC5" style="stroke:#181818;stroke-width:1.0;"/><polygon fill="#181818" points="323.6,232,333.4409,231.6031,328.0835,229.7868,329.8997,224.4295,323.6,232" style="stroke:#181818;stroke-width:1.0;"/></g><!--MD5=[99c893a28e333a5372539c8fe7069209]
link w to UC5--><g id="link_w_UC5"><path d="M347.38,159.84 C341.77,169 335.67,178.89 330,188 C322.04,200.79 313,215.08 305.85,226.34 " fill="none" id="w-to-UC5" style="stroke:#181818;stroke-width:1.0;"/><polygon fill="#181818" points="303.11,230.65,311.3201,225.2099,305.7972,226.4335,304.5736,220.9105,303.11,230.65" style="stroke:#181818;stroke-width:1.0;"/></g><!--MD5=[b648bef203f2d53c9856de98320e8e01]
link ch to UC5--><g id="link_ch_UC5"><path d="M577.83,149.32 C568.01,162.6 554.08,178.44 538,188 C477.22,224.16 451.75,207.42 383,224 C370.7,226.97 357.47,230.23 345.04,233.33 " fill="none" id="ch-to-UC5" style="stroke:#181818;stroke-width:1.0;"/><polygon fill="#181818" points="340.14,234.56,349.8426,236.251,344.9899,233.344,347.8969,228.4912,340.14,234.56" style="stroke:#181818;stroke-width:1.0;"/></g><!--MD5=[6db5176ff125ae436d96dc8994641ca6]
link a to UC5--><g id="link_a_UC5"><path d="M293,164.13 C293,184.2 293,208.07 293,224.94 " fill="none" id="a-to-UC5" style="stroke:#181818;stroke-width:1.0;"/><polygon fill="#181818" points="293,230.37,297,221.37,293,225.37,289,221.37,293,230.37" style="stroke:#181818;stroke-width:1.0;"/></g><!--MD5=[579da7dd7a8d5bb55d216568f69ffe38]
link fc to UC5--><g id="link_fc_UC5"><path d="M655.79,164.25 C647.22,173.39 637.1,182.18 626,188 C529.31,238.7 490.09,202.73 383,224 C370.17,226.55 356.42,229.74 343.63,232.92 " fill="none" id="fc-to-UC5" style="stroke:#181818;stroke-width:1.0;"/><polygon fill="#181818" points="338.59,234.18,348.2973,235.8441,343.4365,232.9505,346.3301,228.0897,338.59,234.18" style="stroke:#181818;stroke-width:1.0;"/></g><!--MD5=[328a1b75033cb6e21905ae7b227d40c1]
link c to UC4--><g id="link_c_UC4"><path d="M495.75,164.13 C497.94,181.72 500.49,202.24 502.5,218.39 " fill="none" id="c-to-UC4" style="stroke:#181818;stroke-width:1.0;"/><polygon fill="#181818" points="503.16,223.69,506.0228,214.2664,502.5451,218.728,498.0836,215.2502,503.16,223.69" style="stroke:#181818;stroke-width:1.0;"/></g><!--MD5=[461e3173cd8d22197cdabb575b0c2dfd]
link w to UC4--><g id="link_w_UC4"><path d="M388.66,144.04 C412.17,164.57 450.71,198.23 477.17,221.33 " fill="none" id="w-to-UC4" style="stroke:#181818;stroke-width:1.0;"/><polygon fill="#181818" points="480.98,224.66,476.8216,215.7321,477.21,221.3756,471.5665,221.764,480.98,224.66" style="stroke:#181818;stroke-width:1.0;"/></g><!--MD5=[671315809142cbf8f95afb4988884e94]
link fc to UC4--><g id="link_fc_UC4"><path d="M652.59,164.01 C644.48,172.53 635.37,181.08 626,188 C606.33,202.53 582.49,215.02 561.25,224.68 " fill="none" id="fc-to-UC4" style="stroke:#181818;stroke-width:1.0;"/><polygon fill="#181818" points="556.48,226.83,566.3288,226.7985,561.0425,224.7847,563.0564,219.4985,556.48,226.83" style="stroke:#181818;stroke-width:1.0;"/></g><!--MD5=[ced53a2e1ee50106e9ee477c87b6a0fe]
link a to UC4--><g id="link_a_UC4"><path d="M309.94,164.07 C315.31,172.89 321.99,181.56 330,188 C355.73,208.67 389.08,222.17 419.82,230.92 " fill="none" id="a-to-UC4" style="stroke:#181818;stroke-width:1.0;"/><polygon fill="#181818" points="424.73,232.29,417.1308,226.0248,419.9128,230.9503,414.9873,233.7323,424.73,232.29" style="stroke:#181818;stroke-width:1.0;"/></g><!--MD5=[899c6a638e1b8f6851da156ca7a9dbf2]
link ch to UC4--><g id="link_ch_UC4"><path d="M577.85,146.99 C563.24,167.22 541.08,197.91 525.24,219.85 " fill="none" id="ch-to-UC4" style="stroke:#181818;stroke-width:1.0;"/><polygon fill="#181818" points="522.16,224.12,530.6709,219.1637,525.0864,220.0659,524.1842,214.4814,522.16,224.12" style="stroke:#181818;stroke-width:1.0;"/></g><!--MD5=[d0799cae5d9a295fb7796d4df448133f]
link c to UC3--><g id="link_c_UC3"><path d="M521.76,157.69 C533.54,168.47 547.62,179.84 562,188 C595.78,207.16 636.73,221.1 671.04,230.55 " fill="none" id="c-to-UC3" style="stroke:#181818;stroke-width:1.0;"/><polygon fill="#181818" points="676.05,231.92,668.3994,225.7178,671.2219,230.6201,666.3196,233.4427,676.05,231.92" style="stroke:#181818;stroke-width:1.0;"/></g><!--MD5=[71fba4d683dd6a260b46bc412e62a629]
link fc to UC3--><g id="link_fc_UC3"><path d="M702.35,164.13 C711.33,182.78 721.89,204.72 729.86,221.27 " fill="none" id="fc-to-UC3" style="stroke:#181818;stroke-width:1.0;"/><polygon fill="#181818" points="732.03,225.79,731.7334,215.9456,729.8626,221.2842,724.5241,219.4134,732.03,225.79" style="stroke:#181818;stroke-width:1.0;"/></g><!--MD5=[46a88b67fe0fb697a9d600a230bce57d]
link a to UC2--><g id="link_a_UC2"><path d="M273.49,138.44 C240.77,159.3 174.58,201.5 135.3,226.55 " fill="none" id="a-to-UC2" style="stroke:#181818;stroke-width:1.0;"/><polygon fill="#181818" points="130.65,229.51,140.3895,228.0464,134.8665,226.8228,136.0901,221.2999,130.65,229.51" style="stroke:#181818;stroke-width:1.0;"/></g><!--MD5=[e9923d9fd4075a960db40f09654be8d8]
link fc to UC1--><g id="link_fc_UC1"><path d="M725.06,139.12 C797.19,162.18 945.87,209.7 1018.8,233.01 " fill="none" id="fc-to-UC1" style="stroke:#181818;stroke-width:1.0;"/><polygon fill="#181818" points="1023.91,234.65,1016.5473,228.1086,1019.1456,233.1334,1014.1207,235.7317,1023.91,234.65" style="stroke:#181818;stroke-width:1.0;"/></g><!--MD5=[04c55412723db1567d879286acf678e9]
link fc to UC0--><g id="link_fc_UC0"><path d="M725.21,147.4 C772.01,171.71 847.11,210.72 887.73,231.81 " fill="none" id="fc-to-UC0" style="stroke:#181818;stroke-width:1.0;"/><polygon fill="#181818" points="892.5,234.3,886.3565,226.6021,888.0627,231.9955,882.6693,233.7017,892.5,234.3" style="stroke:#181818;stroke-width:1.0;"/></g><!--MD5=[27fbb50452dbab34186dfc1004d573d4]
@startuml

' !theme _none_
' !theme plain

package "My Restaurant - menu" {
    package professionals {
        actor Chef as ch
        actor "Food Criticer" as fc
    }
    package employees {
        actor Admin as a
        actor Waiter as w
    }
    package customer {
        actor Customer as c #green;line:green;text:green 
    }

    usecase "Review" as UC0
    usecase "Mark dishes" as UC1
    usecase "Manages accounts" as UC2
    usecase "Write guestbook entries" as UC3
    usecase "Sees the guestbook entries" as UC4

    usecase "sees the menu" as UC5


}


c - -> UC5
w - -> UC5
ch - -> UC5
a - -> UC5
fc - -> UC5

c - -> UC4
w - -> UC4
fc - -> UC4
a - -> UC4
ch - -> UC4

c - -> UC3
fc - -> UC3

a - -> UC2

fc - -> UC1

fc - -> UC0
@enduml

@startuml


package "My Restaurant - menu" {
    package professionals {
        actor Chef as ch
        actor "Food Criticer" as fc
    }
    package employees {
        actor Admin as a
        actor Waiter as w
    }
    package customer {
        actor Customer as c #green;line:green;text:green 
    }

    usecase "Review" as UC0
    usecase "Mark dishes" as UC1
    usecase "Manages accounts" as UC2
    usecase "Write guestbook entries" as UC3
    usecase "Sees the guestbook entries" as UC4

    usecase "sees the menu" as UC5


}


c - -> UC5
w - -> UC5
ch - -> UC5
a - -> UC5
fc - -> UC5

c - -> UC4
w - -> UC4
fc - -> UC4
a - -> UC4
ch - -> UC4

c - -> UC3
fc - -> UC3

a - -> UC2

fc - -> UC1

fc - -> UC0
@enduml

PlantUML version 1.2022.7(Mon Aug 22 19:01:30 CEST 2022)
(GPL source distribution)
Java Runtime: Java(TM) SE Runtime Environment
JVM: Java HotSpot(TM) 64-Bit Server VM
Default Encoding: Cp1252
Language: de
Country: DE
--></g></svg>