<?xml version="1.0" encoding="UTF-8" standalone="no"?><svg xmlns="http://www.w3.org/2000/svg" xmlns:xlink="http://www.w3.org/1999/xlink" contentStyleType="text/css" height="419px" preserveAspectRatio="none" style="width:1055px;height:419px;background:#FFFFFF;" version="1.1" viewBox="0 0 1055 419" width="1055px" zoomAndPan="magnify"><defs/><g><!--MD5=[4c4bef07394b5336a340e537076dd0c8]
cluster My Restaurant - menu--><g id="cluster_My Restaurant - menu"><path d="M8.5,6 L162.5,6 A3.75,3.75 0 0 1 165,8.5 L172,29.6094 L1045.5,29.6094 A2.5,2.5 0 0 1 1048,32.1094 L1048,409.5 A2.5,2.5 0 0 1 1045.5,412 L8.5,412 A2.5,2.5 0 0 1 6,409.5 L6,8.5 A2.5,2.5 0 0 1 8.5,6 " fill="none" style="stroke:#000000;stroke-width:1.5;"/><line style="stroke:#000000;stroke-width:1.5;" x1="6" x2="172" y1="29.6094" y2="29.6094"/><text fill="#000000" font-family="sans-serif" font-size="14" font-weight="bold" lengthAdjust="spacing" textLength="153" x="10" y="22.5332">My Restaurant - menu</text></g><!--MD5=[8e8c41c1ce34813b33736b9e139881eb]
cluster professionals--><g id="cluster_professionals"><path d="M444.5,144 L541.5,144 A3.75,3.75 0 0 1 544,146.5 L551,167.6094 L693.5,167.6094 A2.5,2.5 0 0 1 696,170.1094 L696,271.5 A2.5,2.5 0 0 1 693.5,274 L444.5,274 A2.5,2.5 0 0 1 442,271.5 L442,146.5 A2.5,2.5 0 0 1 444.5,144 " fill="none" style="stroke:#000000;stroke-width:1.5;"/><line style="stroke:#000000;stroke-width:1.5;" x1="442" x2="551" y1="167.6094" y2="167.6094"/><text fill="#000000" font-family="sans-serif" font-size="14" font-weight="bold" lengthAdjust="spacing" textLength="96" x="446" y="160.5332">professionals</text></g><!--MD5=[27fbeb839ece46b3aa7371a781596bb6]
cluster employees--><g id="cluster_employees"><path d="M722.5,144 L799.5,144 A3.75,3.75 0 0 1 802,146.5 L809,167.6094 L809.5,167.6094 A2.5,2.5 0 0 1 812,170.1094 L812,271.5 A2.5,2.5 0 0 1 809.5,274 L722.5,274 A2.5,2.5 0 0 1 720,271.5 L720,146.5 A2.5,2.5 0 0 1 722.5,144 " fill="none" style="stroke:#000000;stroke-width:1.5;"/><line style="stroke:#000000;stroke-width:1.5;" x1="720" x2="809" y1="167.6094" y2="167.6094"/><text fill="#000000" font-family="sans-serif" font-size="14" font-weight="bold" lengthAdjust="spacing" textLength="76" x="724" y="160.5332">employees</text></g><!--MD5=[b5e3361e2a5f8dd2cdf2e5f0d87d6906]
cluster customer--><g id="cluster_customer"><path d="M838.5,144 L905.5,144 A3.75,3.75 0 0 1 908,146.5 L915,167.6094 L927.5,167.6094 A2.5,2.5 0 0 1 930,170.1094 L930,271.5 A2.5,2.5 0 0 1 927.5,274 L838.5,274 A2.5,2.5 0 0 1 836,271.5 L836,146.5 A2.5,2.5 0 0 1 838.5,144 " fill="none" style="stroke:#000000;stroke-width:1.5;"/><line style="stroke:#000000;stroke-width:1.5;" x1="836" x2="915" y1="167.6094" y2="167.6094"/><text fill="#000000" font-family="sans-serif" font-size="14" font-weight="bold" lengthAdjust="spacing" textLength="66" x="840" y="160.5332">customer</text></g><!--MD5=[7d46d6cd919e02e6168a09ad91eae8b4]
entity u--><g id="elem_u"><ellipse cx="499" cy="50.5" fill="#98FB98" rx="8" ry="8" style="stroke:#000000;stroke-width:0.5;"/><path d="M499,58.5 L499,85.5 M486,66.5 L512,66.5 M499,85.5 L486,100.5 M499,85.5 L512,100.5 " fill="none" style="stroke:#000000;stroke-width:0.5;"/><text fill="#008000" font-family="sans-serif" font-size="14" lengthAdjust="spacing" textLength="29" x="484.5" y="116.5332">User</text></g><g id="elem_n1"><path d="M237,68 L237,94.3516 L339,94.3516 L339,78 L329,68 L237,68 " fill="#FEFFDD" style="stroke:#181818;stroke-width:0.5;"/><path d="M329,68 L329,78 L339,78 L329,68 " fill="#FEFFDD" style="stroke:#181818;stroke-width:1.0;"/><text fill="#000000" font-family="sans-serif" font-size="13" lengthAdjust="spacing" textLength="81" x="243" y="86.4951">Version 0.1.0.</text></g><g id="elem_UC0"><ellipse cx="709.9297" cy="357.0784" fill="#98FB98" rx="59.4297" ry="15.5784" style="stroke:#000000;stroke-width:0.5;"/><text fill="#000000" font-family="sans-serif" font-size="14" lengthAdjust="spacing" textLength="67" x="673.4297" y="361.595">Order dish</text></g><g id="elem_UC1"><ellipse cx="918.1359" cy="357.1272" fill="#98FB98" rx="113.6359" ry="25.1272" style="stroke:#000000;stroke-width:0.5;"/><text fill="#000000" font-family="sans-serif" font-size="14" lengthAdjust="spacing" textLength="191" x="822.6359" y="360.8557">Cancel order if status == open</text></g><g id="elem_UC2"><ellipse cx="205.9524" cy="357.0905" fill="#98FB98" rx="183.4524" ry="39.0905" style="stroke:#000000;stroke-width:0.5;"/><text fill="#000000" font-family="sans-serif" font-size="14" lengthAdjust="spacing" textLength="338" x="36.9524" y="360.819">Complete the order by sending an e-mail to the waiter</text></g><g id="elem_UC3"><ellipse cx="520.1904" cy="356.9381" fill="#98FB98" rx="95.1904" ry="21.4381" style="stroke:#000000;stroke-width:0.5;"/><text fill="#000000" font-family="sans-serif" font-size="14" lengthAdjust="spacing" textLength="150" x="445.1904" y="360.6666">Write guestbook entries</text></g><!--MD5=[6377be883f12643b62e189b60fe92e84]
entity ch--><g id="elem_ch"><ellipse cx="665" cy="188.5" fill="#F1F1F1" rx="8" ry="8" style="stroke:#181818;stroke-width:0.5;"/><path d="M665,196.5 L665,223.5 M652,204.5 L678,204.5 M665,223.5 L652,238.5 M665,223.5 L678,238.5 " fill="none" style="stroke:#181818;stroke-width:0.5;"/><text fill="#000000" font-family="sans-serif" font-size="14" lengthAdjust="spacing" textLength="30" x="650" y="254.5332">Chef</text></g><!--MD5=[f83ae91a690dfc657e1c5fbbd818f13d]
entity a--><g id="elem_a"><ellipse cx="595" cy="188.5" fill="#F1F1F1" rx="8" ry="8" style="stroke:#181818;stroke-width:0.5;"/><path d="M595,196.5 L595,223.5 M582,204.5 L608,204.5 M595,223.5 L582,238.5 M595,223.5 L608,238.5 " fill="none" style="stroke:#181818;stroke-width:0.5;"/><text fill="#000000" font-family="sans-serif" font-size="14" lengthAdjust="spacing" textLength="39" x="575.5" y="254.5332">Admin</text></g><!--MD5=[db756db308cf6ff8cfeeb51570136b75]
entity fc--><g id="elem_fc"><ellipse cx="499" cy="188.5" fill="#F1F1F1" rx="8" ry="8" style="stroke:#181818;stroke-width:0.5;"/><path d="M499,196.5 L499,223.5 M486,204.5 L512,204.5 M499,223.5 L486,238.5 M499,223.5 L512,238.5 " fill="none" style="stroke:#181818;stroke-width:0.5;"/><text fill="#000000" font-family="sans-serif" font-size="14" lengthAdjust="spacing" textLength="82" x="458" y="254.5332">Food Criticer</text></g><!--MD5=[5b15d04c6eb656314d90c943872e8a65]
entity w--><g id="elem_w"><ellipse cx="757" cy="188.5" fill="#F1F1F1" rx="8" ry="8" style="stroke:#181818;stroke-width:0.5;"/><path d="M757,196.5 L757,223.5 M744,204.5 L770,204.5 M757,223.5 L744,238.5 M757,223.5 L770,238.5 " fill="none" style="stroke:#181818;stroke-width:0.5;"/><text fill="#000000" font-family="sans-serif" font-size="14" lengthAdjust="spacing" textLength="41" x="736.5" y="254.5332">Waiter</text></g><!--MD5=[8e9b2d9d80e066cced8e5d90e9bdea61]
entity c--><g id="elem_c"><ellipse cx="883" cy="188.5" fill="#F1F1F1" rx="8" ry="8" style="stroke:#181818;stroke-width:0.5;"/><path d="M883,196.5 L883,223.5 M870,204.5 L896,204.5 M883,223.5 L870,238.5 M883,223.5 L896,238.5 " fill="none" style="stroke:#181818;stroke-width:0.5;"/><text fill="#000000" font-family="sans-serif" font-size="14" lengthAdjust="spacing" textLength="61" x="852.5" y="254.5332">Customer</text></g><!--MD5=[06a832829b5b155175aa1c2269fcd6ac]
reverse link u to c--><g id="link_u_c"><path d="M533.77,82.21 C591.02,83.86 707.39,92.79 794,136 C816,146.97 836.48,165.04 852.23,181.43 " fill="none" id="u-backto-c" style="stroke:#181818;stroke-width:1.0;"/><polygon fill="none" points="533.59,89.21,513.71,81.87,533.83,75.21,533.59,89.21" style="stroke:#181818;stroke-width:1.0;"/></g><!--MD5=[e559cd32e29158da16669ed931a236be]
reverse link u to w--><g id="link_u_w"><path d="M533.87,84.67 C575.65,89.33 646.21,101.98 696,136 C712.41,147.21 726.14,164.31 736.39,179.99 " fill="none" id="u-backto-w" style="stroke:#181818;stroke-width:1.0;"/><polygon fill="none" points="532.97,91.62,513.7,82.8,534.26,77.68,532.97,91.62" style="stroke:#181818;stroke-width:1.0;"/></g><!--MD5=[06ed1f97a038065ba63baeec153d63f2]
reverse link u to a--><g id="link_u_a"><path d="M529.36,105.55 C539.36,114.34 549.97,124.9 558,136 C567.62,149.28 575.57,165.46 581.61,179.93 " fill="none" id="u-backto-a" style="stroke:#181818;stroke-width:1.0;"/><polygon fill="none" points="524.66,110.75,513.66,92.64,533.56,99.93,524.66,110.75" style="stroke:#181818;stroke-width:1.0;"/></g><!--MD5=[58b8bb65de01276a9c7d4464a1da77bf]
reverse link u to ch--><g id="link_u_ch"><path d="M533.66,88.19 C563.27,95.13 605.22,109.14 632,136 C643.81,147.85 651.54,164.47 656.53,179.66 " fill="none" id="u-backto-ch" style="stroke:#181818;stroke-width:1.0;"/><polygon fill="none" points="532.07,95.01,513.87,84.16,534.86,81.29,532.07,95.01" style="stroke:#181818;stroke-width:1.0;"/></g><!--MD5=[07daa2a0b82632b56f27dd9b13b8d022]
reverse link u to fc--><g id="link_u_fc"><path d="M499,140.37 C499,153.63 499,167.39 499,179.57 " fill="none" id="u-backto-fc" style="stroke:#181818;stroke-width:1.0;"/><polygon fill="none" points="492,140.25,499,120.25,506,140.25,492,140.25" style="stroke:#181818;stroke-width:1.0;"/></g><!--MD5=[cd5ffc126cc0f32e10a583baf9334a09]
link c to UC0--><g id="link_c_UC0"><path d="M852.47,244 C817.94,271.15 762.54,314.69 732,338.71 " fill="none" id="c-to-UC0" style="stroke:#008000;stroke-width:1.0;stroke-dasharray:7.0,7.0;"/><polygon fill="#008000" points="728.04,341.82,737.5928,339.4232,731.9775,338.7385,732.6623,333.1232,728.04,341.82" style="stroke:#008000;stroke-width:1.0;"/></g><!--MD5=[231f635dede5940d51ca320d2782ce6c]
link c to UC1--><g id="link_c_UC1"><path d="M892.84,258.25 C898.43,279.97 905.33,306.75 910.48,326.78 " fill="none" id="c-to-UC1" style="stroke:#008000;stroke-width:1.0;stroke-dasharray:7.0,7.0;"/><polygon fill="#008000" points="911.75,331.72,913.3603,322.0037,910.4937,326.8804,905.617,324.0138,911.75,331.72" style="stroke:#008000;stroke-width:1.0;"/></g><!--MD5=[2110900e7b9f8bd9c77dd8810158f208]
link c to UC2--><g id="link_c_UC2"><path d="M852.3,247.33 C836.1,260.13 815.22,274.24 794,282 C632.19,341.2 578.63,294.05 408,318 C386.48,321.02 363.77,324.75 341.65,328.69 " fill="none" id="c-to-UC2" style="stroke:#008000;stroke-width:1.0;stroke-dasharray:7.0,7.0;"/><polygon fill="#008000" points="336.64,329.59,346.199,331.9619,341.5636,328.7194,344.8061,324.0841,336.64,329.59" style="stroke:#008000;stroke-width:1.0;"/></g><!--MD5=[d0799cae5d9a295fb7796d4df448133f]
link c to UC3--><g id="link_c_UC3"><path d="M852.25,245.89 C835.88,258.48 814.86,272.83 794,282 C726.88,311.51 703.62,298.29 633,318 C613.5,323.44 592.41,330.27 573.79,336.64 " fill="none" id="c-to-UC3" style="stroke:#008000;stroke-width:1.0;stroke-dasharray:7.0,7.0;"/><polygon fill="#008000" points="568.6,338.42,578.412,339.2712,573.3275,336.7918,575.8069,331.7073,568.6,338.42" style="stroke:#008000;stroke-width:1.0;"/></g><!--MD5=[16bbb32b229c7e853de1591c004f5b47]
link u to UC0--><g id="link_u_UC0"><path d="M484.48,86.22 C464.23,92.99 428.27,108.38 413,136 C381.6,192.79 370.98,232.55 413,282 C445.08,319.75 585.83,302.87 633,318 C650.09,323.48 668.14,332.21 682.46,339.92 " fill="none" id="u-to-UC0" style="stroke:#181818;stroke-width:1.0;"/><polygon fill="#181818" points="687.17,342.49,681.1754,334.6756,682.7778,340.1008,677.3526,341.7031,687.17,342.49" style="stroke:#181818;stroke-width:1.0;"/></g><!--MD5=[029537e5e4461a0df5daea802c84c937]
link u to UC1--><g id="link_u_UC1"><path d="M484.34,90.81 C470.48,100.08 450.56,116.09 442,136 C416.36,195.61 398.56,233.79 442,282 C493.6,339.26 711.35,303.2 787,318 C808.41,322.19 831.37,328.28 852,334.37 " fill="none" id="u-to-UC1" style="stroke:#181818;stroke-width:1.0;"/><polygon fill="#181818" points="856.91,335.83,849.4302,329.4228,852.1189,334.3998,847.1419,337.0886,856.91,335.83" style="stroke:#181818;stroke-width:1.0;"/></g><!--MD5=[ce2247ea231441ce78fd7a3347e9db83]
link u to UC2--><g id="link_u_UC2"><path d="M484.44,83.7 C454.72,87.81 386.13,100.73 342,136 C282.87,183.25 242.64,263.66 222.06,313.07 " fill="none" id="u-to-UC2" style="stroke:#181818;stroke-width:1.0;"/><polygon fill="#181818" points="220.13,317.76,227.2481,310.9532,222.0287,313.1345,219.8473,307.9152,220.13,317.76" style="stroke:#181818;stroke-width:1.0;"/></g><!--MD5=[d4dfb423357f333e95523f2f58c1f403]
link u to UC3--><g id="link_u_UC3"><path d="M484.37,83.41 C457.43,86.88 400.48,98.51 376,136 C340.52,190.33 342.19,226.61 376,282 C392.96,309.78 424.04,327.57 453,338.72 " fill="none" id="u-to-UC3" style="stroke:#181818;stroke-width:1.0;"/><polygon fill="#181818" points="458,340.59,450.9775,333.6846,453.3184,338.8344,448.1685,341.1752,458,340.59" style="stroke:#181818;stroke-width:1.0;"/></g><!--MD5=[97408efeead2ef493fd51a265b9ce34b]
@startuml
package "My Restaurant - menu" {
    
    actor User as u #palegreen;line:black;text:green;

    package professionals {
        actor Chef as ch
        actor Admin as a
        actor "Food Criticer" as fc
    }
    package employees {
        
        actor Waiter as w
    }
    package customer {
        actor Customer as c  
    }

    note "Version 0.1.0." as n1 

    u <|- - c
    u <|- - w
    u <|- - a
    u <|- - ch
    u <|- - fc

    usecase "Order dish" as UC0 #palegreen;line:black;text:black;
    usecase "Cancel order if status == open" as UC1 #palegreen;line:black;text:black;
    usecase "Complete the order by sending an e-mail to the waiter" as UC2 #palegreen;line:black;text:black;
    usecase "Write guestbook entries" as UC3 #palegreen;line:black;text:black;

    c - -> UC0 #green;line.dashed;
    c - -> UC1 #green;line.dashed;
    c - -> UC2 #green;line.dashed;
    c - -> UC3 #green;line.dashed;

    u - -> UC0
    u - -> UC1 
    u - -> UC2 
    u - -> UC3 
}


@enduml

PlantUML version 1.2022.7(Mon Aug 22 19:01:30 CEST 2022)
(GPL source distribution)
Java Runtime: Java(TM) SE Runtime Environment
JVM: Java HotSpot(TM) 64-Bit Server VM
Default Encoding: Cp1252
Language: de
Country: DE
--></g></svg>