<?xml version="1.0" encoding="UTF-8" standalone="no"?><svg xmlns="http://www.w3.org/2000/svg" xmlns:xlink="http://www.w3.org/1999/xlink" contentStyleType="text/css" height="419px" preserveAspectRatio="none" style="width:1054px;height:419px;background:#FFFFFF;" version="1.1" viewBox="0 0 1054 419" width="1054px" zoomAndPan="magnify"><defs/><g><!--MD5=[4c4bef07394b5336a340e537076dd0c8]
cluster My Restaurant - menu--><g id="cluster_My Restaurant - menu"><path d="M8.5,6 L162.5,6 A3.75,3.75 0 0 1 165,8.5 L172,29.6094 L1044.5,29.6094 A2.5,2.5 0 0 1 1047,32.1094 L1047,409.5 A2.5,2.5 0 0 1 1044.5,412 L8.5,412 A2.5,2.5 0 0 1 6,409.5 L6,8.5 A2.5,2.5 0 0 1 8.5,6 " fill="none" style="stroke:#000000;stroke-width:1.5;"/><line style="stroke:#000000;stroke-width:1.5;" x1="6" x2="172" y1="29.6094" y2="29.6094"/><text fill="#000000" font-family="sans-serif" font-size="14" font-weight="bold" lengthAdjust="spacing" textLength="153" x="10" y="22.5332">My Restaurant - menu</text></g><!--MD5=[8e8c41c1ce34813b33736b9e139881eb]
cluster professionals--><g id="cluster_professionals"><path d="M107.5,144 L204.5,144 A3.75,3.75 0 0 1 207,146.5 L214,167.6094 L356.5,167.6094 A2.5,2.5 0 0 1 359,170.1094 L359,271.5 A2.5,2.5 0 0 1 356.5,274 L107.5,274 A2.5,2.5 0 0 1 105,271.5 L105,146.5 A2.5,2.5 0 0 1 107.5,144 " fill="none" style="stroke:#000000;stroke-width:1.5;"/><line style="stroke:#000000;stroke-width:1.5;" x1="105" x2="214" y1="167.6094" y2="167.6094"/><text fill="#000000" font-family="sans-serif" font-size="14" font-weight="bold" lengthAdjust="spacing" textLength="96" x="109" y="160.5332">professionals</text></g><!--MD5=[27fbeb839ece46b3aa7371a781596bb6]
cluster employees--><g id="cluster_employees"><path d="M385.5,144 L462.5,144 A3.75,3.75 0 0 1 465,146.5 L472,167.6094 L472.5,167.6094 A2.5,2.5 0 0 1 475,170.1094 L475,271.5 A2.5,2.5 0 0 1 472.5,274 L385.5,274 A2.5,2.5 0 0 1 383,271.5 L383,146.5 A2.5,2.5 0 0 1 385.5,144 " fill="none" style="stroke:#000000;stroke-width:1.5;"/><line style="stroke:#000000;stroke-width:1.5;" x1="383" x2="472" y1="167.6094" y2="167.6094"/><text fill="#000000" font-family="sans-serif" font-size="14" font-weight="bold" lengthAdjust="spacing" textLength="76" x="387" y="160.5332">employees</text></g><!--MD5=[b5e3361e2a5f8dd2cdf2e5f0d87d6906]
cluster customer--><g id="cluster_customer"><path d="M501.5,144 L568.5,144 A3.75,3.75 0 0 1 571,146.5 L578,167.6094 L590.5,167.6094 A2.5,2.5 0 0 1 593,170.1094 L593,271.5 A2.5,2.5 0 0 1 590.5,274 L501.5,274 A2.5,2.5 0 0 1 499,271.5 L499,146.5 A2.5,2.5 0 0 1 501.5,144 " fill="none" style="stroke:#000000;stroke-width:1.5;"/><line style="stroke:#000000;stroke-width:1.5;" x1="499" x2="578" y1="167.6094" y2="167.6094"/><text fill="#000000" font-family="sans-serif" font-size="14" font-weight="bold" lengthAdjust="spacing" textLength="66" x="503" y="160.5332">customer</text></g><!--MD5=[7d46d6cd919e02e6168a09ad91eae8b4]
entity u--><g id="elem_u"><ellipse cx="328" cy="50.5" fill="#008000" rx="8" ry="8" style="stroke:#008000;stroke-width:0.5;"/><path d="M328,58.5 L328,85.5 M315,66.5 L341,66.5 M328,85.5 L315,100.5 M328,85.5 L341,100.5 " fill="none" style="stroke:#008000;stroke-width:0.5;"/><text fill="#008000" font-family="sans-serif" font-size="14" lengthAdjust="spacing" textLength="29" x="313.5" y="116.5332">User</text></g><g id="elem_n1"><path d="M137,68 L137,94.3516 L239,94.3516 L239,78 L229,68 L137,68 " fill="#FEFFDD" style="stroke:#181818;stroke-width:0.5;"/><path d="M229,68 L229,78 L239,78 L229,68 " fill="#FEFFDD" style="stroke:#181818;stroke-width:1.0;"/><text fill="#000000" font-family="sans-serif" font-size="13" lengthAdjust="spacing" textLength="81" x="143" y="86.4951">Version 0.1.0.</text></g><g id="elem_UC0"><ellipse cx="81.9297" cy="357.0784" fill="#F1F1F1" rx="59.4297" ry="15.5784" style="stroke:#181818;stroke-width:0.5;"/><text fill="#000000" font-family="sans-serif" font-size="14" lengthAdjust="spacing" textLength="67" x="45.4297" y="361.595">Order dish</text></g><g id="elem_UC1"><ellipse cx="290.1359" cy="357.1272" fill="#F1F1F1" rx="113.6359" ry="25.1272" style="stroke:#181818;stroke-width:0.5;"/><text fill="#000000" font-family="sans-serif" font-size="14" lengthAdjust="spacing" textLength="191" x="194.6359" y="360.8557">Cancel order if status == open</text></g><g id="elem_UC2"><ellipse cx="621.9524" cy="357.0905" fill="#F1F1F1" rx="183.4524" ry="39.0905" style="stroke:#181818;stroke-width:0.5;"/><text fill="#000000" font-family="sans-serif" font-size="14" lengthAdjust="spacing" textLength="338" x="452.9524" y="360.819">Complete the order by sending an e-mail to the waiter</text></g><g id="elem_UC3"><ellipse cx="936.1904" cy="356.9381" fill="#F1F1F1" rx="95.1904" ry="21.4381" style="stroke:#181818;stroke-width:0.5;"/><text fill="#000000" font-family="sans-serif" font-size="14" lengthAdjust="spacing" textLength="150" x="861.1904" y="360.6666">Write guestbook entries</text></g><!--MD5=[6377be883f12643b62e189b60fe92e84]
entity ch--><g id="elem_ch"><ellipse cx="328" cy="188.5" fill="#F1F1F1" rx="8" ry="8" style="stroke:#181818;stroke-width:0.5;"/><path d="M328,196.5 L328,223.5 M315,204.5 L341,204.5 M328,223.5 L315,238.5 M328,223.5 L341,238.5 " fill="none" style="stroke:#181818;stroke-width:0.5;"/><text fill="#000000" font-family="sans-serif" font-size="14" lengthAdjust="spacing" textLength="30" x="313" y="254.5332">Chef</text></g><!--MD5=[f83ae91a690dfc657e1c5fbbd818f13d]
entity a--><g id="elem_a"><ellipse cx="258" cy="188.5" fill="#F1F1F1" rx="8" ry="8" style="stroke:#181818;stroke-width:0.5;"/><path d="M258,196.5 L258,223.5 M245,204.5 L271,204.5 M258,223.5 L245,238.5 M258,223.5 L271,238.5 " fill="none" style="stroke:#181818;stroke-width:0.5;"/><text fill="#000000" font-family="sans-serif" font-size="14" lengthAdjust="spacing" textLength="39" x="238.5" y="254.5332">Admin</text></g><!--MD5=[db756db308cf6ff8cfeeb51570136b75]
entity fc--><g id="elem_fc"><ellipse cx="162" cy="188.5" fill="#F1F1F1" rx="8" ry="8" style="stroke:#181818;stroke-width:0.5;"/><path d="M162,196.5 L162,223.5 M149,204.5 L175,204.5 M162,223.5 L149,238.5 M162,223.5 L175,238.5 " fill="none" style="stroke:#181818;stroke-width:0.5;"/><text fill="#000000" font-family="sans-serif" font-size="14" lengthAdjust="spacing" textLength="82" x="121" y="254.5332">Food Criticer</text></g><!--MD5=[5b15d04c6eb656314d90c943872e8a65]
entity w--><g id="elem_w"><ellipse cx="420" cy="188.5" fill="#F1F1F1" rx="8" ry="8" style="stroke:#181818;stroke-width:0.5;"/><path d="M420,196.5 L420,223.5 M407,204.5 L433,204.5 M420,223.5 L407,238.5 M420,223.5 L433,238.5 " fill="none" style="stroke:#181818;stroke-width:0.5;"/><text fill="#000000" font-family="sans-serif" font-size="14" lengthAdjust="spacing" textLength="41" x="399.5" y="254.5332">Waiter</text></g><!--MD5=[8e9b2d9d80e066cced8e5d90e9bdea61]
entity c--><g id="elem_c"><ellipse cx="546" cy="188.5" fill="#F1F1F1" rx="8" ry="8" style="stroke:#181818;stroke-width:0.5;"/><path d="M546,196.5 L546,223.5 M533,204.5 L559,204.5 M546,223.5 L533,238.5 M546,223.5 L559,238.5 " fill="none" style="stroke:#181818;stroke-width:0.5;"/><text fill="#000000" font-family="sans-serif" font-size="14" lengthAdjust="spacing" textLength="61" x="515.5" y="254.5332">Customer</text></g><!--MD5=[06a832829b5b155175aa1c2269fcd6ac]
reverse link u to c--><g id="link_u_c"><path d="M362,92.58 C388.98,101.82 427,116.75 457,136 C478.22,149.61 499.1,168.48 515.3,184.69 " fill="none" id="u-backto-c" style="stroke:#181818;stroke-width:1.0;"/><polygon fill="none" points="359.59,99.16,342.73,86.31,363.92,85.85,359.59,99.16" style="stroke:#181818;stroke-width:1.0;"/></g><!--MD5=[e559cd32e29158da16669ed931a236be]
reverse link u to w--><g id="link_u_w"><path d="M353.95,120.35 C368.31,141.58 385.91,167.61 399.33,187.45 " fill="none" id="u-backto-w" style="stroke:#181818;stroke-width:1.0;"/><polygon fill="none" points="347.99,124.04,342.58,103.55,359.58,116.19,347.99,124.04" style="stroke:#181818;stroke-width:1.0;"/></g><!--MD5=[06ed1f97a038065ba63baeec153d63f2]
reverse link u to a--><g id="link_u_a"><path d="M303.23,122.82 C300.72,127.23 298.27,131.69 296,136 C288.62,150.02 281.15,165.75 274.81,179.64 " fill="none" id="u-backto-a" style="stroke:#181818;stroke-width:1.0;"/><polygon fill="none" points="297.3,119.08,313.46,105.36,309.38,126.16,297.3,119.08" style="stroke:#181818;stroke-width:1.0;"/></g><!--MD5=[58b8bb65de01276a9c7d4464a1da77bf]
reverse link u to ch--><g id="link_u_ch"><path d="M328,140.37 C328,153.63 328,167.39 328,179.57 " fill="none" id="u-backto-ch" style="stroke:#181818;stroke-width:1.0;"/><polygon fill="none" points="321,140.25,328,120.25,335,140.25,321,140.25" style="stroke:#181818;stroke-width:1.0;"/></g><!--MD5=[07daa2a0b82632b56f27dd9b13b8d022]
reverse link u to fc--><g id="link_u_fc"><path d="M295.9,99.82 C283.81,106.37 269.87,113.71 257,120 C241.27,127.69 234.59,124.95 221,136 C206.17,148.06 193.27,164.72 183.35,179.87 " fill="none" id="u-backto-fc" style="stroke:#181818;stroke-width:1.0;"/><polygon fill="none" points="292.58,93.66,313.48,90.18,299.31,105.94,292.58,93.66" style="stroke:#181818;stroke-width:1.0;"/></g><!--MD5=[cd5ffc126cc0f32e10a583baf9334a09]
link c to UC0--><g id="link_c_UC0"><path d="M515.21,247.08 C498.99,259.82 478.11,273.95 457,282 C332.35,329.54 286.86,279.94 159,318 C141.54,323.2 123.21,332.09 108.81,339.97 " fill="none" id="c-to-UC0" style="stroke:#181818;stroke-width:1.0;"/><polygon fill="#181818" points="104.09,342.59,113.9,341.7158,108.4608,340.1618,110.0148,334.7226,104.09,342.59" style="stroke:#181818;stroke-width:1.0;"/></g><!--MD5=[231f635dede5940d51ca320d2782ce6c]
link c to UC1--><g id="link_c_UC1"><path d="M515.24,243.61 C498.52,255.88 477.18,270.64 457,282 C422.37,301.5 381.61,319.64 349.04,333.09 " fill="none" id="c-to-UC1" style="stroke:#181818;stroke-width:1.0;"/><polygon fill="#181818" points="344.29,335.03,354.1351,335.302,348.9134,333.1263,351.0891,327.9045,344.29,335.03" style="stroke:#181818;stroke-width:1.0;"/></g><!--MD5=[2110900e7b9f8bd9c77dd8810158f208]
link c to UC2--><g id="link_c_UC2"><path d="M567.37,258.25 C577.01,275.48 588.41,295.9 598.31,313.6 " fill="none" id="c-to-UC2" style="stroke:#181818;stroke-width:1.0;"/><polygon fill="#181818" points="600.79,318.04,599.8914,308.2322,598.3509,313.6753,592.9078,312.1348,600.79,318.04" style="stroke:#181818;stroke-width:1.0;"/></g><!--MD5=[d0799cae5d9a295fb7796d4df448133f]
link c to UC3--><g id="link_c_UC3"><path d="M576.6,230.67 C642.36,253.6 797.91,307.85 881.17,336.88 " fill="none" id="c-to-UC3" style="stroke:#181818;stroke-width:1.0;"/><polygon fill="#181818" points="886.06,338.58,878.8712,331.8479,881.3369,336.9391,876.2457,339.4048,886.06,338.58" style="stroke:#181818;stroke-width:1.0;"/></g><!--MD5=[bbb8877b28bc9b17ca2b25ce2ba65156]
@startuml
package "My Restaurant - menu" {
    
    actor User as u #green;line:green;text:green;

    package professionals {
        actor Chef as ch
        actor Admin as a
        actor "Food Criticer" as fc
    }
    package employees {
        
        actor Waiter as w
    }
    package customer {
        actor Customer as c  
    }

    note "Version 0.1.0." as n1 

    u <|- - c
    u <|- - w
    u <|- - a
    u <|- - ch
    u <|- - fc

    usecase "Order dish" as UC0
    usecase "Cancel order if status == open" as UC1
    usecase "Complete the order by sending an e-mail to the waiter" as UC2
    usecase "Write guestbook entries" as UC3

    c - -> UC0
    c - -> UC1
    c - -> UC2
    c - -> UC3
}


@enduml

PlantUML version 1.2022.7(Mon Aug 22 19:01:30 CEST 2022)
(GPL source distribution)
Java Runtime: Java(TM) SE Runtime Environment
JVM: Java HotSpot(TM) 64-Bit Server VM
Default Encoding: Cp1252
Language: de
Country: DE
--></g></svg>